<?xml version="1.0" encoding="UTF-8"?>
<!DOCTYPE svg PUBLIC "-//W3C//DTD SVG 1.1//EN" "http://www.w3.org/Graphics/SVG/1.1/DTD/svg11.dtd">
<svg xmlns="http://www.w3.org/2000/svg" version="1.1" width="600px" height="150px" style="shape-rendering:geometricPrecision; text-rendering:geometricPrecision; image-rendering:optimizeQuality; fill-rule:evenodd; clip-rule:evenodd" xmlns:xlink="http://www.w3.org/1999/xlink">
<g><path style="opacity:1" fill="#a2a2a2" d="M 169.5,45.5 C 170.496,45.4142 171.329,45.7476 172,46.5C 172.499,50.4862 172.666,54.4862 172.5,58.5C 171.167,58.5 169.833,58.5 168.5,58.5C 168.231,54.0685 168.564,49.7352 169.5,45.5 Z"/></g>
<g><path style="opacity:0.971" fill="#a2a2a2" d="M 173.5,46.5 C 174.978,46.238 176.311,46.5713 177.5,47.5C 176.833,47.8333 176.167,48.1667 175.5,48.5C 174.287,48.2528 173.62,47.5862 173.5,46.5 Z"/></g>
<g><path style="opacity:0.059" fill="#323232" d="M 304.5,46.5 C 305.386,45.2241 306.386,45.2241 307.5,46.5C 307.376,47.1067 307.043,47.44 306.5,47.5C 306.158,46.6618 305.492,46.3284 304.5,46.5 Z"/></g>
<g><path style="opacity:0.661" fill="#5e361e" d="M 345.5,47.5 C 343.5,47.5 341.5,47.5 339.5,47.5C 341.218,46.776 343.052,46.1094 345,45.5C 345.464,46.0944 345.631,46.7611 345.5,47.5 Z"/></g>
<g><path style="opacity:0.715" fill="#a0a0a0" d="M 259.5,47.5 C 257.5,47.5 255.5,47.5 253.5,47.5C 253.5,51.1667 253.5,54.8333 253.5,58.5C 252.517,54.7016 252.183,50.7016 252.5,46.5C 255.059,46.1984 257.393,46.5318 259.5,47.5 Z"/></g>
<g><path style="opacity:0.997" fill="#e8e8e8" d="M 259.5,47.5 C 258.665,48.9432 257.332,49.9432 255.5,50.5C 260.694,52.0583 260.694,53.0583 255.5,53.5C 255.5,54.5 255.5,55.5 255.5,56.5C 256.978,56.238 258.311,56.5713 259.5,57.5C 257.604,58.4656 255.604,58.7989 253.5,58.5C 253.5,54.8333 253.5,51.1667 253.5,47.5C 255.5,47.5 257.5,47.5 259.5,47.5 Z"/></g>
<g><path style="opacity:0.455" fill="#64391e" d="M 369.5,47.5 C 370.568,46.5655 371.901,46.2322 373.5,46.5C 373.817,50.7016 373.483,54.7016 372.5,58.5C 372.5,54.8333 372.5,51.1667 372.5,47.5C 371.5,47.5 370.5,47.5 369.5,47.5 Z"/></g>
<g><path style="opacity:0.765" fill="#97562e" d="M 382.5,47.5 C 380.5,47.5 378.5,47.5 376.5,47.5C 376.5,51.1667 376.5,54.8333 376.5,58.5C 375.517,54.7016 375.183,50.7016 375.5,46.5C 378.059,46.1984 380.393,46.5318 382.5,47.5 Z"/></g>
<g><path style="opacity:0.999" fill="#ce753e" d="M 382.5,47.5 C 384.855,49.2462 385.022,51.2462 383,53.5C 381.644,54.3802 380.144,54.7135 378.5,54.5C 378.843,56.4832 378.176,57.8166 376.5,58.5C 376.5,54.8333 376.5,51.1667 376.5,47.5C 378.5,47.5 380.5,47.5 382.5,47.5 Z M 378.5,49.5 C 380.337,49.6395 380.67,50.3061 379.5,51.5C 378.702,51.0431 378.369,50.3764 378.5,49.5 Z"/></g>
<g><path style="opacity:1" fill="#c36f3b" d="M 385.5,46.5 C 387.857,46.3367 390.19,46.5034 392.5,47C 394.994,49.2436 394.994,51.5769 392.5,54C 393.257,55.5122 394.257,56.8455 395.5,58C 392.196,59.0419 390.029,57.8753 389,54.5C 388.51,55.7932 388.343,57.1266 388.5,58.5C 387.5,58.5 386.5,58.5 385.5,58.5C 385.5,54.5 385.5,50.5 385.5,46.5 Z M 388.5,49.5 C 390.337,49.6395 390.67,50.3061 389.5,51.5C 388.702,51.0431 388.369,50.3764 388.5,49.5 Z"/></g>
<g><path style="opacity:1" fill="#bd6c3a" d="M 406.5,48.5 C 408.405,54.0237 406.571,57.6904 401,59.5C 399.122,58.9473 397.622,57.9473 396.5,56.5C 396.5,54.1667 396.5,51.8333 396.5,49.5C 397.286,47.2649 398.952,46.2649 401.5,46.5C 403.514,46.4365 405.181,47.1032 406.5,48.5 Z M 400.5,55.5 C 401.043,55.44 401.376,55.1067 401.5,54.5C 400.675,53.6143 399.675,53.281 398.5,53.5C 398.528,50.6578 399.862,49.4912 402.5,50C 403.576,51.7261 403.743,53.5594 403,55.5C 402.023,56.7736 401.189,56.7736 400.5,55.5 Z"/></g>
<g><path style="opacity:1" fill="#9c5930" d="M 413.5,53.5 C 413.607,55.3786 413.107,55.7119 412,54.5C 411.51,55.7932 411.343,57.1266 411.5,58.5C 410.211,54.9562 408.544,51.6229 406.5,48.5C 407.204,46.6558 408.537,46.1558 410.5,47C 411.132,49.4152 412.132,51.5819 413.5,53.5 Z"/></g>
<g><path style="opacity:0.997" fill="#c7713c" d="M 415.5,47.5 C 416.492,47.3284 417.158,47.6618 417.5,48.5C 416.978,51.5682 416.145,54.5682 415,57.5C 413.989,58.3366 412.822,58.67 411.5,58.5C 411.343,57.1266 411.51,55.7932 412,54.5C 413.107,55.7119 413.607,55.3786 413.5,53.5C 413.595,51.2143 414.262,49.2143 415.5,47.5 Z"/></g>
<g><path style="opacity:0.235" fill="#472815" d="M 415.5,47.5 C 416.386,46.2241 417.386,46.2241 418.5,47.5C 418.376,48.1067 418.043,48.44 417.5,48.5C 417.158,47.6618 416.492,47.3284 415.5,47.5 Z"/></g>
<g><path style="opacity:1" fill="#f48a49" d="M 430.5,47.5 C 432.527,47.3379 434.527,47.5045 436.5,48C 435.207,48.49 433.873,48.6567 432.5,48.5C 432.5,51.1667 432.5,53.8333 432.5,56.5C 434.099,56.7678 435.432,56.4345 436.5,55.5C 437.338,55.8417 437.672,56.5084 437.5,57.5C 435.393,58.4682 433.059,58.8016 430.5,58.5C 430.5,54.8333 430.5,51.1667 430.5,47.5 Z"/></g>
<g><path style="opacity:0.999" fill="#c2c2c2" d="M 157.5,57.5 C 157.5,57.8333 157.5,58.1667 157.5,58.5C 155.723,58.2137 154.056,57.5471 152.5,56.5C 150.664,57.9333 148.664,58.4333 146.5,58C 147.927,54.5558 149.26,51.0558 150.5,47.5C 152.347,46.1696 153.847,46.503 155,48.5C 156.145,51.4318 156.978,54.4318 157.5,57.5 Z M 151.5,51.5 C 153.337,51.6395 153.67,52.3061 152.5,53.5C 151.702,53.0431 151.369,52.3764 151.5,51.5 Z"/></g>
<g><path style="opacity:0.996" fill="#c4c4c4" d="M 270.5,47.5 C 272.213,48.305 273.879,49.305 275.5,50.5C 274.675,51.3857 273.675,51.719 272.5,51.5C 272.5,53.1667 272.5,54.8333 272.5,56.5C 273.675,56.281 274.675,56.6143 275.5,57.5C 273.647,58.7596 271.814,58.7596 270,57.5C 269.713,55.1093 269.213,52.7759 268.5,50.5C 269.193,49.4822 269.859,48.4822 270.5,47.5 Z"/></g>
<g><path style="opacity:0.996" fill="#cdcdcd" d="M 294.5,47.5 C 296.078,48.0656 297.412,49.0656 298.5,50.5C 295.833,52.8333 295.833,55.1667 298.5,57.5C 297.295,59.1376 295.962,59.4709 294.5,58.5C 293.741,55.8434 293.074,53.1767 292.5,50.5C 293.193,49.4822 293.859,48.4822 294.5,47.5 Z"/></g>
<g><path style="opacity:1" fill="#c6713c" d="M 356.5,47.5 C 357.117,47.6107 357.617,47.944 358,48.5C 359.895,54.0072 358.228,57.6739 353,59.5C 352.617,58.944 352.117,58.6107 351.5,58.5C 351.328,57.5084 351.662,56.8417 352.5,56.5C 353.167,56.5 353.5,56.1667 353.5,55.5C 355.805,53.9555 356.138,51.9555 354.5,49.5C 353.391,48.71 352.058,48.21 350.5,48C 352.473,47.5045 354.473,47.3379 356.5,47.5 Z"/></g>
<g><path style="opacity:1" fill="#b86938" d="M 421.5,46.5 C 422.978,46.238 424.311,46.5713 425.5,47.5C 426.833,50.8333 428.167,54.1667 429.5,57.5C 425.5,56.1667 421.5,56.1667 417.5,57.5C 419.234,53.9628 420.568,50.2961 421.5,46.5 Z M 423.5,51.5 C 424.773,52.0768 424.773,52.7435 423.5,53.5C 422.537,53.0302 422.537,52.3635 423.5,51.5 Z"/></g>
<g><path style="opacity:1" fill="#9c5930" d="M 430.5,47.5 C 437.682,45.1738 440.849,47.8404 440,55.5C 439.583,56.756 438.75,57.4226 437.5,57.5C 437.672,56.5084 437.338,55.8417 436.5,55.5C 435.432,56.4345 434.099,56.7678 432.5,56.5C 432.5,53.8333 432.5,51.1667 432.5,48.5C 433.873,48.6567 435.207,48.49 436.5,48C 434.527,47.5045 432.527,47.3379 430.5,47.5 Z M 436.5,55.5 C 434.821,55.7148 433.821,55.0481 433.5,53.5C 434.65,54.8502 435.317,54.6836 435.5,53C 435.164,51.9701 434.497,51.4701 433.5,51.5C 433.821,49.9519 434.821,49.2852 436.5,49.5C 437.38,51.6112 437.38,53.6112 436.5,55.5 Z"/></g>
<g><path style="opacity:1" fill="#bf6c3a" d="M 444.5,46.5 C 446.144,46.2865 447.644,46.6198 449,47.5C 449.881,50.93 451.048,54.2633 452.5,57.5C 451.833,57.8333 451.167,58.1667 450.5,58.5C 449.167,57.8333 447.833,57.1667 446.5,56.5C 444.664,57.9333 442.664,58.4333 440.5,58C 442.131,54.2725 443.465,50.4391 444.5,46.5 Z"/></g>
<g><path style="opacity:0.906" fill="#949494" d="M 222.5,50.5 C 223.449,49.8476 224.615,49.5143 226,49.5C 227.681,49.6083 228.848,50.2749 229.5,51.5C 229.167,51.5 228.833,51.5 228.5,51.5C 226.735,50.5386 224.735,50.2053 222.5,50.5 Z"/></g>
<g><path style="opacity:1" fill="#bf6d3a" d="M 339.5,47.5 C 341.5,47.5 343.5,47.5 345.5,47.5C 346.713,48.4971 346.546,49.4971 345,50.5C 343.644,49.6198 342.144,49.2865 340.5,49.5C 340.338,51.5273 340.505,53.5273 341,55.5C 341.977,56.7736 342.811,56.7736 343.5,55.5C 345.048,55.8212 345.715,56.8212 345.5,58.5C 340.294,59.8801 337.294,58.0468 336.5,53C 336.613,50.6013 337.613,48.7679 339.5,47.5 Z"/></g>
<g><path style="opacity:1" fill="#aa6134" d="M 356.5,47.5 C 354.473,47.3379 352.473,47.5045 350.5,48C 352.058,48.21 353.391,48.71 354.5,49.5C 350.727,49.6573 349.727,51.324 351.5,54.5C 351.5,55.1667 351.833,55.5 352.5,55.5C 352.5,55.8333 352.5,56.1667 352.5,56.5C 351.662,56.8417 351.328,57.5084 351.5,58.5C 348.45,57.7582 346.783,55.7582 346.5,52.5C 347.892,46.7463 351.225,45.0796 356.5,47.5 Z"/></g>
<g><path style="opacity:1" fill="#cb733d" d="M 367.5,53.5 C 368.338,53.8417 368.672,54.5084 368.5,55.5C 368.5,56.5 368.5,57.5 368.5,58.5C 367.167,58.5 365.833,58.5 364.5,58.5C 364.5,57.5 364.5,56.5 364.5,55.5C 364.108,53.8211 363.608,52.1545 363,50.5C 362.503,53.146 362.336,55.8127 362.5,58.5C 360.577,54.9707 359.911,50.9707 360.5,46.5C 361.978,46.238 363.311,46.5713 364.5,47.5C 364.914,49.9192 365.914,51.9192 367.5,53.5 Z"/></g>
<g><path style="opacity:0.271" fill="#464646" d="M 159.5,49.5 C 159.5,53.8333 159.5,58.1667 159.5,62.5C 158.833,61.1667 158.167,59.8333 157.5,58.5C 157.5,58.1667 157.5,57.8333 157.5,57.5C 158.167,54.8333 158.833,52.1667 159.5,49.5 Z"/></g>
<g><path style="opacity:0.999" fill="#d8d8d8" d="M 159.5,49.5 C 162.059,49.1984 164.393,49.5318 166.5,50.5C 164.901,50.2322 163.568,50.5655 162.5,51.5C 162.216,53.4147 162.549,55.0813 163.5,56.5C 164.067,57.4202 163.401,57.7535 161.5,57.5C 161.5,59.1667 161.5,60.8333 161.5,62.5C 160.833,62.5 160.167,62.5 159.5,62.5C 159.5,58.1667 159.5,53.8333 159.5,49.5 Z"/></g>
<g><path style="opacity:0.999" fill="#a8a8a8" d="M 173.5,49.5 C 174.822,49.33 175.989,49.6634 177,50.5C 176.599,53.0613 176.765,55.7279 177.5,58.5C 176.167,58.5 174.833,58.5 173.5,58.5C 173.5,55.5 173.5,52.5 173.5,49.5 Z"/></g>
<g><path style="opacity:0.999" fill="#c2c2c2" d="M 179.5,49.5 C 182.167,49.5 184.833,49.5 187.5,49.5C 187.5,53.8333 187.5,58.1667 187.5,62.5C 186.5,62.5 185.5,62.5 184.5,62.5C 184.762,61.0222 184.429,59.6888 183.5,58.5C 181.939,59.3473 180.439,59.0139 179,57.5C 178.398,54.7795 178.565,52.1128 179.5,49.5 Z M 182.5,51.5 C 185.148,53.1276 185.148,54.7943 182.5,56.5C 181.334,54.8327 181.334,53.166 182.5,51.5 Z"/></g>
<g><path style="opacity:0.998" fill="#bdbdbd" d="M 193.5,56.5 C 195.344,54.7211 196.01,52.3878 195.5,49.5C 197.388,51.9878 198.055,54.9878 197.5,58.5C 190.105,60.4422 187.105,57.4422 188.5,49.5C 189.833,49.5 191.167,49.5 192.5,49.5C 192.198,52.0593 192.532,54.3926 193.5,56.5 Z"/></g>
<g><path style="opacity:0.522" fill="#828282" d="M 195.5,49.5 C 196.01,52.3878 195.344,54.7211 193.5,56.5C 194.065,54.0479 194.732,51.7146 195.5,49.5 Z"/></g>
<g><path style="opacity:0.998" fill="#d8d8d8" d="M 220.5,51.5 C 220.5,52.5 220.5,53.5 220.5,54.5C 218.712,54.2148 217.045,54.5481 215.5,55.5C 215.624,56.1067 215.957,56.44 216.5,56.5C 220.701,56.442 221.201,57.442 218,59.5C 213.432,58.6057 211.765,55.939 213,51.5C 215.621,48.8598 218.121,48.8598 220.5,51.5 Z"/></g>
<g><path style="opacity:0.993" fill="#dbdbdb" d="M 242.5,51.5 C 243.209,50.596 244.209,50.2627 245.5,50.5C 247.177,53.6154 246.844,56.2821 244.5,58.5C 243.89,57.609 243.557,56.609 243.5,55.5C 243.5,54.8333 243.167,54.5 242.5,54.5C 243.625,53.3478 243.625,52.3478 242.5,51.5 Z"/></g>
<g><path style="opacity:0.994" fill="#cfcfcf" d="M 276.5,49.5 C 278.389,50.3799 280.389,50.3799 282.5,49.5C 282.5,50.5 282.5,51.5 282.5,52.5C 281.5,52.5 280.5,52.5 279.5,52.5C 279.5,54.5 279.5,56.5 279.5,58.5C 278.5,58.5 277.5,58.5 276.5,58.5C 276.5,55.5 276.5,52.5 276.5,49.5 Z"/></g>
<g><path style="opacity:0.992" fill="#cfcfcf" d="M 289.5,58.5 C 288.89,57.609 288.557,56.609 288.5,55.5C 288.5,54.8333 288.167,54.5 287.5,54.5C 288.625,53.3478 288.625,52.3478 287.5,51.5C 286.508,51.3284 285.842,51.6618 285.5,52.5C 284.522,52.189 283.855,51.5223 283.5,50.5C 285.833,49.1667 288.167,49.1667 290.5,50.5C 292.189,53.6499 291.856,56.3165 289.5,58.5 Z"/></g>
<g><path style="opacity:0.995" fill="#d1d1d1" d="M 304.5,46.5 C 305.492,46.3284 306.158,46.6618 306.5,47.5C 305.711,47.7828 305.044,48.2828 304.5,49C 305.942,49.3768 306.942,50.2101 307.5,51.5C 307.5,52.5 307.5,53.5 307.5,54.5C 305.712,54.2148 304.045,54.5481 302.5,55.5C 302.624,56.1067 302.957,56.44 303.5,56.5C 308.137,56.6077 308.47,57.6077 304.5,59.5C 301.574,58.7433 299.907,56.91 299.5,54C 300.58,51.0908 302.247,48.5908 304.5,46.5 Z"/></g>
<g><path style="opacity:0.995" fill="#cccccc" d="M 309.5,53.5 C 309.5,52.8333 309.5,52.1667 309.5,51.5C 310.492,49.9735 311.992,49.3068 314,49.5C 315.167,49.8333 316.333,50.1667 317.5,50.5C 317.144,53.1146 315.811,54.9479 313.5,56C 317.734,56.9507 318.401,58.9507 315.5,62C 313.231,62.7581 311.064,62.5914 309,61.5C 309.083,58.8806 309.25,56.214 309.5,53.5 Z M 311.5,51.5 C 313.337,51.6395 313.67,52.3061 312.5,53.5C 311.702,53.0431 311.369,52.3764 311.5,51.5 Z M 311.5,58.5 C 313.983,58.73 314.483,59.3966 313,60.5C 311.97,60.1639 311.47,59.4972 311.5,58.5 Z"/></g>
<g><path style="opacity:0.813" fill="#c6c6c6" d="M 319.5,45.5 C 320.478,45.811 321.145,46.4777 321.5,47.5C 321.311,50.9851 321.311,54.6518 321.5,58.5C 320.5,58.5 319.5,58.5 318.5,58.5C 318.505,53.8677 318.838,49.5344 319.5,45.5 Z"/></g>
<g><path style="opacity:0.993" fill="#cccccc" d="M 329.5,58.5 C 328.89,57.609 328.557,56.609 328.5,55.5C 328.5,54.8333 328.167,54.5 327.5,54.5C 328.625,53.3478 328.625,52.3478 327.5,51.5C 326.508,51.3284 325.842,51.6618 325.5,52.5C 324.522,52.189 323.855,51.5223 323.5,50.5C 326.034,49.2234 328.534,49.2234 331,50.5C 331.167,51.8333 331.333,53.1667 331.5,54.5C 331.415,56.3328 330.748,57.6661 329.5,58.5 Z"/></g>
<g><path style="opacity:0.859" fill="#d47940" d="M 369.5,47.5 C 370.5,47.5 371.5,47.5 372.5,47.5C 372.5,51.1667 372.5,54.8333 372.5,58.5C 370.883,57.4107 370.05,55.744 370,53.5C 369.722,54.4158 369.222,55.0825 368.5,55.5C 368.672,54.5084 368.338,53.8417 367.5,53.5C 367.595,51.2143 368.262,49.2143 369.5,47.5 Z"/></g>
<g><path style="opacity:1" fill="#bdbdbd" d="M 162.5,51.5 C 163.568,50.5655 164.901,50.2322 166.5,50.5C 168.369,54.2477 167.536,57.2477 164,59.5C 163.667,59.1667 163.333,58.8333 163,58.5C 162.79,60.0581 162.29,61.3915 161.5,62.5C 161.5,60.8333 161.5,59.1667 161.5,57.5C 163.401,57.7535 164.067,57.4202 163.5,56.5C 165.023,54.4143 164.69,52.7476 162.5,51.5 Z"/></g>
<g><path style="opacity:0.998" fill="#bfbfbf" d="M 200.5,49.5 C 205.931,48.0936 208.265,50.0936 207.5,55.5C 200.959,55.5378 200.959,56.2045 207.5,57.5C 203.227,60.0163 200.227,58.8497 198.5,54C 199.267,52.5295 199.933,51.0295 200.5,49.5 Z"/></g>
<g><path style="opacity:0.409" fill="#5a331b" d="M 364.5,55.5 C 363.833,56.5 363.167,57.5 362.5,58.5C 362.336,55.8127 362.503,53.146 363,50.5C 363.608,52.1545 364.108,53.8211 364.5,55.5 Z"/></g>
<g><path style="opacity:0.004" fill="#000000" d="M 433.5,51.5 C 434.497,51.4701 435.164,51.9701 435.5,53C 435.317,54.6836 434.65,54.8502 433.5,53.5C 433.5,52.8333 433.5,52.1667 433.5,51.5 Z"/></g>
<g><path style="opacity:0.347" fill="#565656" d="M 216.5,51.5 C 216.833,52.8333 217.167,52.8333 217.5,51.5C 218.885,52.3023 218.718,52.9689 217,53.5C 215.282,52.9689 215.115,52.3023 216.5,51.5 Z"/></g>
<g><path style="opacity:0.027" fill="#2e2e2e" d="M 226.5,51.5 C 227.167,51.5 227.833,51.5 228.5,51.5C 228.167,52.1667 227.833,52.8333 227.5,53.5C 226.833,53.5 226.5,53.1667 226.5,52.5C 226.5,52.1667 226.5,51.8333 226.5,51.5 Z"/></g>
<g><path style="opacity:0.035" fill="#3f3f3f" d="M 234.5,51.5 C 235.167,51.5 235.833,51.5 236.5,51.5C 236.167,52.1667 235.833,52.8333 235.5,53.5C 234.508,53.6716 233.842,53.3382 233.5,52.5C 234.167,52.5 234.5,52.1667 234.5,51.5 Z"/></g>
<g><path style="opacity:0.331" fill="#555555" d="M 303.5,51.5 C 303.833,52.8333 304.167,52.8333 304.5,51.5C 305.885,52.3023 305.718,52.9689 304,53.5C 302.282,52.9689 302.115,52.3023 303.5,51.5 Z"/></g>
<g><path style="opacity:0.776" fill="#5f381f" d="M 396.5,49.5 C 396.5,51.8333 396.5,54.1667 396.5,56.5C 395.305,56.1344 394.639,55.301 394.5,54C 394.899,52.2725 395.566,50.7725 396.5,49.5 Z"/></g>
<g><path style="opacity:0.008" fill="#26170e" d="M 447.5,51.5 C 446.662,51.8417 446.328,52.5084 446.5,53.5C 445.224,52.6136 445.224,51.6136 446.5,50.5C 447.107,50.6236 447.44,50.9569 447.5,51.5 Z"/></g>
<g><path style="opacity:0.995" fill="#d1d1d1" d="M 222.5,50.5 C 224.735,50.2053 226.735,50.5386 228.5,51.5C 227.833,51.5 227.167,51.5 226.5,51.5C 225.167,51.8333 225.167,52.1667 226.5,52.5C 226.5,53.1667 226.833,53.5 227.5,53.5C 228.167,53.5 228.5,53.8333 228.5,54.5C 228.5,55.5 228.5,56.5 228.5,57.5C 226.247,60.0357 223.914,60.0357 221.5,57.5C 222.729,56.7189 224.062,56.2189 225.5,56C 223.937,55.2411 222.937,54.0744 222.5,52.5C 222.5,52.1667 222.5,51.8333 222.5,51.5C 222.5,51.1667 222.5,50.8333 222.5,50.5 Z"/></g>
<g><path style="opacity:0.995" fill="#c6c6c6" d="M 236.5,51.5 C 235.833,51.5 235.167,51.5 234.5,51.5C 233.833,51.5 233.5,51.8333 233.5,52.5C 233.842,53.3382 234.508,53.6716 235.5,53.5C 236.167,53.5 236.5,53.8333 236.5,54.5C 236.5,55.5 236.5,56.5 236.5,57.5C 234.842,59.6536 232.842,59.9869 230.5,58.5C 230.5,57.8333 230.5,57.1667 230.5,56.5C 231.552,56.6495 232.552,56.4828 233.5,56C 231.616,54.9513 230.282,53.4513 229.5,51.5C 231.866,49.4539 234.533,49.1206 237.5,50.5C 237.376,51.1067 237.043,51.44 236.5,51.5 Z"/></g>
<g><path style="opacity:0.991" fill="#b9b9b9" d="M 245.5,50.5 C 244.209,50.2627 243.209,50.596 242.5,51.5C 243.625,52.3478 243.625,53.3478 242.5,54.5C 241.258,56.346 241.591,56.6793 243.5,55.5C 243.557,56.609 243.89,57.609 244.5,58.5C 243.178,58.33 242.011,58.6634 241,59.5C 240.005,58.9341 239.172,58.2674 238.5,57.5C 238.5,56.5 238.5,55.5 238.5,54.5C 238.918,53.7784 239.584,53.2784 240.5,53C 239.643,52.3109 238.977,51.4776 238.5,50.5C 240.973,49.2031 243.307,49.2031 245.5,50.5 Z"/></g>
<g><path style="opacity:0.991" fill="#adadad" d="M 287.5,51.5 C 288.625,52.3478 288.625,53.3478 287.5,54.5C 286.258,56.346 286.591,56.6793 288.5,55.5C 288.557,56.609 288.89,57.609 289.5,58.5C 288.178,58.33 287.011,58.6634 286,59.5C 281.547,57.3451 281.38,55.0118 285.5,52.5C 286.492,52.6716 287.158,52.3382 287.5,51.5 Z"/></g>
<g><path style="opacity:0.318" fill="#545454" d="M 307.5,51.5 C 308.167,51.5 308.833,51.5 309.5,51.5C 309.5,52.1667 309.5,52.8333 309.5,53.5C 308.833,53.8333 308.167,54.1667 307.5,54.5C 307.5,53.5 307.5,52.5 307.5,51.5 Z"/></g>
<g><path style="opacity:0.994" fill="#adadad" d="M 327.5,51.5 C 328.625,52.3478 328.625,53.3478 327.5,54.5C 326.258,56.346 326.591,56.6793 328.5,55.5C 328.557,56.609 328.89,57.609 329.5,58.5C 328.178,58.33 327.011,58.6634 326,59.5C 321.547,57.3451 321.38,55.0118 325.5,52.5C 326.492,52.6716 327.158,52.3382 327.5,51.5 Z"/></g>
<g><path style="opacity:0.004" fill="#000000" d="M 351.5,54.5 C 352.623,53.2426 353.289,53.5759 353.5,55.5C 353.167,55.5 352.833,55.5 352.5,55.5C 351.833,55.5 351.5,55.1667 351.5,54.5 Z"/></g>
<g><path style="opacity:0.005" fill="#100803" d="M 398.5,53.5 C 399.675,53.281 400.675,53.6143 401.5,54.5C 401.376,55.1067 401.043,55.44 400.5,55.5C 400.167,54.1667 399.833,54.1667 399.5,55.5C 398.662,55.1583 398.328,54.4916 398.5,53.5 Z"/></g>
<g><path style="opacity:0.19" fill="#484848" d="M 220.5,51.5 C 221.167,51.5 221.833,51.5 222.5,51.5C 222.5,51.8333 222.5,52.1667 222.5,52.5C 221.596,53.209 221.263,54.209 221.5,55.5C 219.585,55.2155 217.919,55.5489 216.5,56.5C 215.957,56.44 215.624,56.1067 215.5,55.5C 217.045,54.5481 218.712,54.2148 220.5,54.5C 220.5,53.5 220.5,52.5 220.5,51.5 Z"/></g>
<g><path style="opacity:0.996" fill="#c5c5c5" d="M 261.5,49.5 C 263.5,49.5 265.5,49.5 267.5,49.5C 267.64,51.1238 266.973,52.2904 265.5,53C 269.262,55.7272 268.762,57.8938 264,59.5C 259.293,57.9105 259.46,56.7438 264.5,56C 260.864,54.899 259.864,52.7323 261.5,49.5 Z"/></g>
<g><path style="opacity:0.166" fill="#3e3e3e" d="M 307.5,54.5 C 306.167,55.1667 304.833,55.8333 303.5,56.5C 302.957,56.44 302.624,56.1067 302.5,55.5C 304.045,54.5481 305.712,54.2148 307.5,54.5 Z"/></g>
<g><path style="opacity:0.004" fill="#000000" d="M 343.5,55.5 C 342.833,54.1667 342.833,54.1667 343.5,55.5 Z"/></g>
<g><path style="opacity:0.318" fill="#4b4b4b" d="M 236.5,54.5 C 237.167,54.5 237.833,54.5 238.5,54.5C 238.5,55.5 238.5,56.5 238.5,57.5C 237.833,57.5 237.167,57.5 236.5,57.5C 236.5,56.5 236.5,55.5 236.5,54.5 Z"/></g>
<g><path style="opacity:0.129" fill="#3d3d3d" d="M 228.5,54.5 C 229.167,55.1667 229.833,55.8333 230.5,56.5C 230.5,57.1667 230.5,57.8333 230.5,58.5C 229.833,58.1667 229.167,57.8333 228.5,57.5C 228.5,56.5 228.5,55.5 228.5,54.5 Z"/></g>
<g><path style="opacity:0.72" fill="#844b28" d="M 170.5,69.5 C 168.5,69.5 166.5,69.5 164.5,69.5C 165.827,66.3429 168.16,65.1762 171.5,66C 169.627,66.9529 169.294,68.1196 170.5,69.5 Z"/></g>
<g><path style="opacity:0.433" fill="#673a1f" d="M 203.5,69.5 C 202.041,69.4326 200.708,69.7659 199.5,70.5C 199.62,69.4138 200.287,68.7472 201.5,68.5C 202.416,68.5427 203.083,68.8761 203.5,69.5 Z"/></g>
<g><path style="opacity:0.442" fill="#6c3d20" d="M 147.5,69.5 C 145.833,69.5 144.167,69.5 142.5,69.5C 142.5,73.1667 142.5,76.8333 142.5,80.5C 141.517,76.7016 141.183,72.7016 141.5,68.5C 143.735,68.2053 145.735,68.5386 147.5,69.5 Z"/></g>
<g><path style="opacity:1" fill="#da7c42" d="M 147.5,69.5 C 150.244,70.0717 151.077,71.7383 150,74.5C 148.556,76.1554 146.722,76.822 144.5,76.5C 144.843,78.4832 144.176,79.8166 142.5,80.5C 142.5,76.8333 142.5,73.1667 142.5,69.5C 144.167,69.5 145.833,69.5 147.5,69.5 Z M 144.5,71.5 C 146.465,71.9483 146.798,72.9483 145.5,74.5C 144.614,73.675 144.281,72.675 144.5,71.5 Z"/></g>
<g><path style="opacity:0.506" fill="#6c3d20" d="M 157.5,69.5 C 155.833,69.5 154.167,69.5 152.5,69.5C 152.5,73.1667 152.5,76.8333 152.5,80.5C 151.517,76.7016 151.183,72.7016 151.5,68.5C 153.735,68.2053 155.735,68.5386 157.5,69.5 Z"/></g>
<g><path style="opacity:1" fill="#d1773f" d="M 157.5,69.5 C 161.164,70.8672 161.497,73.0338 158.5,76C 162.008,81.2432 161.008,81.7432 155.5,77.5C 154.859,78.9935 153.859,79.9935 152.5,80.5C 152.5,76.8333 152.5,73.1667 152.5,69.5C 154.167,69.5 155.833,69.5 157.5,69.5 Z M 154.5,71.5 C 156.337,71.6395 156.67,72.3061 155.5,73.5C 154.702,73.0431 154.369,72.3764 154.5,71.5 Z"/></g>
<g><path style="opacity:1" fill="#be6c3a" d="M 164.5,69.5 C 166.5,69.5 168.5,69.5 170.5,69.5C 174.136,72.5238 174.469,76.0238 171.5,80C 164.081,82.5563 160.915,80.0563 162,72.5C 162.377,71.0577 163.21,70.0577 164.5,69.5 Z M 165.5,71.5 C 166.833,71.5 168.167,71.5 169.5,71.5C 169.662,73.5273 169.495,75.5273 169,77.5C 168,78.8333 167,78.8333 166,77.5C 165.505,75.5273 165.338,73.5273 165.5,71.5 Z"/></g>
<g><path style="opacity:0.494" fill="#6d3d20" d="M 188.5,69.5 C 186.586,72.6843 185.92,76.351 186.5,80.5C 185.517,76.7016 185.183,72.7016 185.5,68.5C 186.791,68.2627 187.791,68.596 188.5,69.5 Z"/></g>
<g><path style="opacity:1" fill="#fc8f4c" d="M 188.5,69.5 C 189.08,73.649 188.414,77.3157 186.5,80.5C 185.92,76.351 186.586,72.6843 188.5,69.5 Z"/></g>
<g><path style="opacity:0.183" fill="#3a2112" d="M 194.5,69.5 C 193.5,69.5 192.5,69.5 191.5,69.5C 191.5,73.1667 191.5,76.8333 191.5,80.5C 190.517,76.7016 190.183,72.7016 190.5,68.5C 192.099,68.2322 193.432,68.5655 194.5,69.5 Z"/></g>
<g><path style="opacity:1" fill="#fc8f4c" d="M 203.5,69.5 C 204.08,73.649 203.414,77.3157 201.5,80.5C 201.843,77.3467 201.51,75.0134 200.5,73.5C 199.662,73.1583 199.328,72.4916 199.5,71.5C 199.5,71.1667 199.5,70.8333 199.5,70.5C 200.708,69.7659 202.041,69.4326 203.5,69.5 Z"/></g>
<g><path style="opacity:1" fill="#c26e3a" d="M 208.5,68.5 C 213.42,67.7843 216.42,69.7843 217.5,74.5C 216.062,80.3146 212.562,81.9812 207,79.5C 204.689,75.3741 205.189,71.7075 208.5,68.5 Z M 209.5,71.5 C 210.833,71.5 212.167,71.5 213.5,71.5C 213.662,73.5273 213.495,75.5273 213,77.5C 210.694,78.5815 209.194,77.7482 208.5,75C 208.989,73.8615 209.322,72.6948 209.5,71.5 Z"/></g>
<g><path style="opacity:0.969" fill="#949494" d="M 367.5,72.5 C 366.833,72.5 366.5,72.1667 366.5,71.5C 365.5,70.1667 364.5,70.1667 363.5,71.5C 363.5,72.1667 363.167,72.5 362.5,72.5C 361.166,69.9528 361.999,68.2861 365,67.5C 368.001,68.2861 368.834,69.9528 367.5,72.5 Z"/></g>
<g><path style="opacity:1" fill="#b7b7b7" d="M 116.5,71.5 C 119.187,71.3359 121.854,71.5026 124.5,72C 125.444,74.7191 125.777,77.5525 125.5,80.5C 124.5,80.5 123.5,80.5 122.5,80.5C 121.833,72.5 121.167,72.5 120.5,80.5C 119.167,80.5 117.833,80.5 116.5,80.5C 116.5,77.5 116.5,74.5 116.5,71.5 Z"/></g>
<g><path style="opacity:1" fill="#b8b8b8" d="M 128.5,71.5 C 135.61,70.9037 137.61,73.7371 134.5,80C 130.421,81.9622 127.754,80.6289 126.5,76C 127.044,74.415 127.711,72.915 128.5,71.5 Z M 130.5,73.5 C 132.561,74.7514 132.894,76.4181 131.5,78.5C 130.548,76.9547 130.215,75.288 130.5,73.5 Z"/></g>
<g><path style="opacity:1" fill="#c26e3b" d="M 173.5,69.5 C 175.795,68.2076 177.628,68.8743 179,71.5C 180.323,68.9414 182.157,68.2747 184.5,69.5C 180.587,73.0455 180.587,76.5455 184.5,80C 182.024,80.6802 180.191,79.8469 179,77.5C 177.809,79.8469 175.976,80.6802 173.5,80C 177.467,76.3761 177.467,72.8761 173.5,69.5 Z"/></g>
<g><path style="opacity:1" fill="#d37840" d="M 194.5,69.5 C 195.6,71.2774 196.434,73.2774 197,75.5C 197.934,74.1416 198.768,72.8083 199.5,71.5C 199.328,72.4916 199.662,73.1583 200.5,73.5C 200.443,74.609 200.11,75.609 199.5,76.5C 199.833,79.5 198.5,80.8333 195.5,80.5C 195.688,78.8967 195.188,77.5634 194,76.5C 193.878,78.437 193.045,79.7703 191.5,80.5C 191.5,76.8333 191.5,73.1667 191.5,69.5C 192.5,69.5 193.5,69.5 194.5,69.5 Z"/></g>
<g><path style="opacity:0.998" fill="#cacaca" d="M 232.5,71.5 C 238,70.8314 240.167,73.1647 239,78.5C 236.333,82.5 233.667,82.5 231,78.5C 230.167,75.829 230.667,73.4957 232.5,71.5 Z M 234.5,73.5 C 236.898,74.8823 237.065,76.549 235,78.5C 233.212,76.9769 233.045,75.3102 234.5,73.5 Z"/></g>
<g><path style="opacity:0.998" fill="#b7b7b7" d="M 240.5,71.5 C 243.187,71.3359 245.854,71.5026 248.5,72C 249.444,74.7191 249.777,77.5525 249.5,80.5C 248.5,80.5 247.5,80.5 246.5,80.5C 245.833,72.5 245.167,72.5 244.5,80.5C 243.167,80.5 241.833,80.5 240.5,80.5C 240.5,77.5 240.5,74.5 240.5,71.5 Z"/></g>
<g><path style="opacity:0.994" fill="#b4b4b4" d="M 252.5,71.5 C 254.604,71.2011 256.604,71.5344 258.5,72.5C 257.965,74.2705 257.131,74.6039 256,73.5C 254.368,75.0268 254.201,76.6934 255.5,78.5C 257.62,77.1285 258.62,77.7952 258.5,80.5C 254.384,81.9372 251.717,80.4372 250.5,76C 251.044,74.415 251.711,72.915 252.5,71.5 Z"/></g>
<g><path style="opacity:0.992" fill="#cbcbcb" d="M 259.5,71.5 C 260.5,71.5 261.5,71.5 262.5,71.5C 262.192,73.924 262.526,76.2573 263.5,78.5C 264.086,78.2907 264.586,77.9574 265,77.5C 265.495,75.5273 265.662,73.5273 265.5,71.5C 266.5,71.5 267.5,71.5 268.5,71.5C 268.5,74.5 268.5,77.5 268.5,80.5C 260.721,82.7235 257.721,79.7235 259.5,71.5 Z"/></g>
<g><path style="opacity:0.995" fill="#d5d5d5" d="M 276.5,73.5 C 275.209,73.2627 274.209,73.596 273.5,74.5C 273.5,76.5 273.5,78.5 273.5,80.5C 272.5,80.5 271.5,80.5 270.5,80.5C 270.183,77.4281 270.516,74.4281 271.5,71.5C 272.598,72.6155 273.765,72.6155 275,71.5C 276.03,71.8361 276.53,72.5028 276.5,73.5 Z"/></g>
<g><path style="opacity:0.993" fill="#c7c7c7" d="M 283.5,76.5 C 283.5,77.5 283.5,78.5 283.5,79.5C 282.469,80.2485 281.302,80.9152 280,81.5C 278.989,80.6634 277.822,80.33 276.5,80.5C 276.351,79.448 276.517,78.448 277,77.5C 281.378,78.6703 281.545,78.0036 277.5,75.5C 277.5,74.8333 277.5,74.1667 277.5,73.5C 278.918,71.6921 280.918,71.0254 283.5,71.5C 283.64,73.1238 282.973,74.2904 281.5,75C 282.416,75.2784 283.082,75.7784 283.5,76.5 Z"/></g>
<g><path style="opacity:0.993" fill="#c6c6c6" d="M 300.5,71.5 C 302.833,71.5 305.167,71.5 307.5,71.5C 307.5,75.8333 307.5,80.1667 307.5,84.5C 306.5,84.5 305.5,84.5 304.5,84.5C 304.5,83.1667 304.5,81.8333 304.5,80.5C 298.593,79.6815 297.26,76.6815 300.5,71.5 Z M 302.5,73.5 C 304.561,74.7514 304.894,76.4181 303.5,78.5C 302.548,76.9547 302.215,75.288 302.5,73.5 Z"/></g>
<g><path style="opacity:0.995" fill="#c7c7c7" d="M 309.5,71.5 C 310.5,71.5 311.5,71.5 312.5,71.5C 312.192,73.924 312.526,76.2573 313.5,78.5C 314.086,78.2907 314.586,77.9574 315,77.5C 315.495,75.5273 315.662,73.5273 315.5,71.5C 316.5,71.5 317.5,71.5 318.5,71.5C 318.5,74.5 318.5,77.5 318.5,80.5C 310.721,82.7235 307.721,79.7235 309.5,71.5 Z"/></g>
<g><path style="opacity:0.992" fill="#d0d0d0" d="M 327.5,76.5 C 325.712,76.2148 324.045,76.5481 322.5,77.5C 322.624,78.1067 322.957,78.44 323.5,78.5C 324.5,78.5 325.5,78.5 326.5,78.5C 326.833,78.5 327.167,78.5 327.5,78.5C 325.346,82.2579 322.846,82.2579 320,78.5C 319.333,71.5 322,69.8333 328,73.5C 328.74,74.7494 328.573,75.7494 327.5,76.5 Z"/></g>
<g><path style="opacity:0.995" fill="#c2c2c2" d="M 332.5,71.5 C 335.388,71.2196 336.888,72.5529 337,75.5C 338.188,74.4366 338.688,73.1033 338.5,71.5C 339.873,71.3433 341.207,71.51 342.5,72C 340.804,74.5875 339.804,77.4208 339.5,80.5C 338.022,80.762 336.689,80.4287 335.5,79.5C 334.1,76.9646 333.1,74.298 332.5,71.5 Z"/></g>
<g><path style="opacity:0.993" fill="#cbcbcb" d="M 344.5,71.5 C 351.486,71.331 353.153,74.1643 349.5,80C 342.237,80.8209 340.571,77.9876 344.5,71.5 Z M 346.5,73.5 C 349.148,75.1276 349.148,76.7943 346.5,78.5C 345.334,76.8327 345.334,75.166 346.5,73.5 Z"/></g>
<g><path style="opacity:0.994" fill="#dadada" d="M 363.5,71.5 C 364.5,71.5 365.5,71.5 366.5,71.5C 366.5,72.1667 366.833,72.5 367.5,72.5C 369.138,73.7046 369.471,75.0379 368.5,76.5C 366.712,76.2148 365.045,76.5481 363.5,77.5C 363.624,78.1067 363.957,78.44 364.5,78.5C 365.5,78.5 366.5,78.5 367.5,78.5C 367.833,78.5 368.167,78.5 368.5,78.5C 366.616,81.6985 364.283,82.0318 361.5,79.5C 359.922,76.7504 360.255,74.4171 362.5,72.5C 363.167,72.5 363.5,72.1667 363.5,71.5 Z"/></g>
<g><path style="opacity:0.993" fill="#fefffe" d="M 396.5,72.5 C 398.369,74.6353 399.036,77.3019 398.5,80.5C 396.631,78.3647 395.964,75.6981 396.5,72.5 Z"/></g>
<g><path style="opacity:0.323" fill="#797979" d="M 398.5,80.5 C 399.036,77.3019 398.369,74.6353 396.5,72.5C 397.189,71.2928 397.355,69.9594 397,68.5C 398.131,67.3961 398.965,67.7295 399.5,69.5C 399.681,73.1832 399.348,76.8498 398.5,80.5 Z"/></g>
<g><path style="opacity:0.994" fill="#d9d9d9" d="M 405.5,71.5 C 406.822,71.33 407.989,71.6634 409,72.5C 409.497,75.146 409.664,77.8127 409.5,80.5C 408.5,80.5 407.5,80.5 406.5,80.5C 406.802,77.9407 406.468,75.6074 405.5,73.5C 404.494,73.0623 404.494,72.3957 405.5,71.5 Z"/></g>
<g><path style="opacity:0.994" fill="#c4c4c4" d="M 419.5,77.5 C 419.5,76.5 419.5,75.5 419.5,74.5C 419.414,73.5041 419.748,72.6708 420.5,72C 422.579,71.1923 424.579,71.359 426.5,72.5C 425.685,74.2759 424.518,74.9426 423,74.5C 422.51,75.7932 422.343,77.1266 422.5,78.5C 423.822,78.67 424.989,78.3366 426,77.5C 426.483,78.448 426.649,79.448 426.5,80.5C 423.141,81.9886 420.807,80.9886 419.5,77.5 Z"/></g>
<g><path style="opacity:0.995" fill="#c8c8c8" d="M 427.5,71.5 C 429.857,71.3367 432.19,71.5034 434.5,72C 433.667,73.5 432.5,74.6667 431,75.5C 430.506,77.1341 430.34,78.8008 430.5,80.5C 429.5,80.5 428.5,80.5 427.5,80.5C 427.5,77.5 427.5,74.5 427.5,71.5 Z"/></g>
<g><path style="opacity:0.996" fill="#d4d4d4" d="M 443.5,74.5 C 443.672,75.4916 443.338,76.1583 442.5,76.5C 440.712,76.2148 439.045,76.5481 437.5,77.5C 437.624,78.1067 437.957,78.44 438.5,78.5C 439.5,78.5 440.5,78.5 441.5,78.5C 441.833,78.5 442.167,78.5 442.5,78.5C 440.721,81.4287 438.388,81.9287 435.5,80C 434.409,77.9361 434.242,75.7695 435,73.5C 438.305,70.6655 441.138,70.9988 443.5,74.5 Z"/></g>
<g><path style="opacity:0.995" fill="#c2c2c2" d="M 443.5,74.5 C 443.5,73.5 443.5,72.5 443.5,71.5C 446.05,71.5608 447.55,72.8941 448,75.5C 448.45,72.8941 449.95,71.5608 452.5,71.5C 452.196,74.5792 451.196,77.4125 449.5,80C 448.5,80.6667 447.5,80.6667 446.5,80C 445.771,77.9419 444.771,76.1086 443.5,74.5 Z"/></g>
<g><path style="opacity:0.998" fill="#adadad" d="M 462.5,71.5 C 464.833,71.5 467.167,71.5 469.5,71.5C 469.5,72.5 469.5,73.5 469.5,74.5C 468.5,74.5 467.5,74.5 466.5,74.5C 466.5,76.5 466.5,78.5 466.5,80.5C 465.167,80.5 463.833,80.5 462.5,80.5C 462.5,77.5 462.5,74.5 462.5,71.5 Z"/></g>
<g><path style="opacity:0.999" fill="#c9c9c9" d="M 223.5,71.5 C 225.5,71.5 227.5,71.5 229.5,71.5C 229.719,72.675 229.386,73.675 228.5,74.5C 227.575,73.3595 226.741,73.3595 226,74.5C 225.51,75.7932 225.343,77.1266 225.5,78.5C 229.984,77.0985 230.484,78.0985 227,81.5C 222.436,79.5894 221.269,76.256 223.5,71.5 Z"/></g>
<g><path style="opacity:0.259" fill="#4a4a4a" d="M 273.5,74.5 C 274.209,73.596 275.209,73.2627 276.5,73.5C 276.833,73.5 277.167,73.5 277.5,73.5C 277.5,74.1667 277.5,74.8333 277.5,75.5C 276.292,74.7659 274.959,74.4326 273.5,74.5 Z"/></g>
<g><path style="opacity:0.993" fill="#c0c0c0" d="M 285.5,77.5 C 285.5,76.5 285.5,75.5 285.5,74.5C 285.414,73.5041 285.748,72.6708 286.5,72C 291.06,70.3496 293.726,71.8496 294.5,76.5C 293.767,79.4007 291.933,81.0674 289,81.5C 286.929,80.8971 285.762,79.5638 285.5,77.5 Z M 288.5,73.5 C 290.561,74.7514 290.894,76.4181 289.5,78.5C 288.548,76.9547 288.215,75.288 288.5,73.5 Z"/></g>
<g><path style="opacity:0.993" fill="#c3c3c3" d="M 353.5,71.5 C 355.5,71.5 357.5,71.5 359.5,71.5C 359.719,72.675 359.386,73.675 358.5,74.5C 357.575,73.3595 356.741,73.3595 356,74.5C 355.51,75.7932 355.343,77.1266 355.5,78.5C 356.822,78.67 357.989,78.3366 359,77.5C 359.483,78.448 359.649,79.448 359.5,80.5C 352.627,81.0664 350.627,78.0664 353.5,71.5 Z"/></g>
<g><path style="opacity:0.993" fill="#c0c0c0" d="M 382.5,77.5 C 382.5,76.8333 382.5,76.1667 382.5,75.5C 382.33,74.1779 382.663,73.0113 383.5,72C 388.913,70.1 391.247,71.9334 390.5,77.5C 383.959,77.5378 383.959,78.2045 390.5,79.5C 389.372,80.2621 388.205,80.9288 387,81.5C 385.933,80.8095 384.766,80.3095 383.5,80C 382.748,79.3292 382.414,78.4959 382.5,77.5 Z"/></g>
<g><path style="opacity:0.998" fill="#c8c8c8" d="M 461.5,76.5 C 459.585,76.2155 457.919,76.5489 456.5,77.5C 457.568,78.4345 458.901,78.7678 460.5,78.5C 460.5,79.1667 460.5,79.8333 460.5,80.5C 453.89,81.6453 451.723,78.9786 454,72.5C 456.333,71.1667 458.667,71.1667 461,72.5C 461.49,73.7932 461.657,75.1266 461.5,76.5 Z"/></g>
<g><path style="opacity:0.205" fill="#472815" d="M 201.5,80.5 C 200.833,79.1667 200.167,77.8333 199.5,76.5C 200.11,75.609 200.443,74.609 200.5,73.5C 201.51,75.0134 201.843,77.3467 201.5,80.5 Z"/></g>
<g><path style="opacity:0.349" fill="#555555" d="M 323.5,73.5 C 323.833,74.8333 324.167,74.8333 324.5,73.5C 325.885,74.3023 325.718,74.9689 324,75.5C 322.282,74.9689 322.115,74.3023 323.5,73.5 Z"/></g>
<g><path style="opacity:0.345" fill="#5c5c5c" d="M 364.5,73.5 C 364.833,74.8333 365.167,74.8333 365.5,73.5C 366.885,74.3023 366.718,74.9689 365,75.5C 363.282,74.9689 363.115,74.3023 364.5,73.5 Z"/></g>
<g><path style="opacity:0.376" fill="#5c5c5c" d="M 438.5,73.5 C 438.833,74.8333 439.167,74.8333 439.5,73.5C 440.885,74.3023 440.718,74.9689 439,75.5C 437.282,74.9689 437.115,74.3023 438.5,73.5 Z"/></g>
<g><path style="opacity:0.99" fill="#c5c5c5" d="M 380.5,76.5 C 380.5,77.5 380.5,78.5 380.5,79.5C 378.307,80.7969 375.973,80.7969 373.5,79.5C 375.078,78.7022 376.744,78.2022 378.5,78C 376.998,77.4169 375.665,76.5836 374.5,75.5C 373.167,74.5 373.167,73.5 374.5,72.5C 376.833,71.1667 379.167,71.1667 381.5,72.5C 381.192,73.3081 380.692,73.9747 380,74.5C 379.282,73.5494 378.449,73.3828 377.5,74C 378.571,74.8518 379.571,75.6851 380.5,76.5 Z"/></g>
<g><path style="opacity:0.992" fill="#c3c3c3" d="M 417.5,76.5 C 417.5,77.5 417.5,78.5 417.5,79.5C 415.247,82.0357 412.914,82.0357 410.5,79.5C 412.078,78.7022 413.744,78.2022 415.5,78C 413.998,77.4169 412.665,76.5836 411.5,75.5C 410.167,74.5 410.167,73.5 411.5,72.5C 413.833,71.1667 416.167,71.1667 418.5,72.5C 418.192,73.3081 417.692,73.9747 417,74.5C 416.282,73.5494 415.449,73.3828 414.5,74C 415.571,74.8518 416.571,75.6851 417.5,76.5 Z"/></g>
<g><path style="opacity:0.173" fill="#3d3d3d" d="M 285.5,74.5 C 285.5,75.5 285.5,76.5 285.5,77.5C 284.833,78.1667 284.167,78.8333 283.5,79.5C 283.5,78.5 283.5,77.5 283.5,76.5C 284.167,75.8333 284.833,75.1667 285.5,74.5 Z"/></g>
<g><path style="opacity:0.186" fill="#3b3b3b" d="M 327.5,76.5 C 327.5,77.1667 327.5,77.8333 327.5,78.5C 327.167,78.5 326.833,78.5 326.5,78.5C 325.5,77.1667 324.5,77.1667 323.5,78.5C 322.957,78.44 322.624,78.1067 322.5,77.5C 324.045,76.5481 325.712,76.2148 327.5,76.5 Z"/></g>
<g><path style="opacity:0.155" fill="#383838" d="M 368.5,76.5 C 368.5,77.1667 368.5,77.8333 368.5,78.5C 368.167,78.5 367.833,78.5 367.5,78.5C 366.5,77.1667 365.5,77.1667 364.5,78.5C 363.957,78.44 363.624,78.1067 363.5,77.5C 365.045,76.5481 366.712,76.2148 368.5,76.5 Z"/></g>
<g><path style="opacity:0.201" fill="#525252" d="M 405.5,71.5 C 404.494,72.3957 404.494,73.0623 405.5,73.5C 404.935,75.9521 404.268,78.2854 403.5,80.5C 402.833,69.8333 402.167,69.8333 401.5,80.5C 400.523,77.7131 400.19,74.7131 400.5,71.5C 402.167,71.5 403.833,71.5 405.5,71.5 Z"/></g>
<g><path style="opacity:0.993" fill="#fefefe" d="M 403.5,80.5 C 402.833,80.5 402.167,80.5 401.5,80.5C 402.167,69.8333 402.833,69.8333 403.5,80.5 Z"/></g>
<g><path style="opacity:0.192" fill="#4b4b4b" d="M 419.5,74.5 C 419.5,75.5 419.5,76.5 419.5,77.5C 418.833,78.1667 418.167,78.8333 417.5,79.5C 417.5,78.5 417.5,77.5 417.5,76.5C 418.167,75.8333 418.833,75.1667 419.5,74.5 Z"/></g>
<g><path style="opacity:0.208" fill="#383838" d="M 442.5,76.5 C 442.5,77.1667 442.5,77.8333 442.5,78.5C 442.167,78.5 441.833,78.5 441.5,78.5C 440.5,77.1667 439.5,77.1667 438.5,78.5C 437.957,78.44 437.624,78.1067 437.5,77.5C 439.045,76.5481 440.712,76.2148 442.5,76.5 Z"/></g>
<g><path style="opacity:0.191" fill="#3e3e3e" d="M 456.5,77.5 C 457.919,76.5489 459.585,76.2155 461.5,76.5C 461.768,78.099 461.434,79.4324 460.5,80.5C 460.5,79.8333 460.5,79.1667 460.5,78.5C 459.432,77.5655 458.099,77.2322 456.5,77.5 Z"/></g>
<g><path style="opacity:0.384" fill="#4b4b4b" d="M 382.5,75.5 C 382.5,76.1667 382.5,76.8333 382.5,77.5C 381.833,78.1667 381.167,78.8333 380.5,79.5C 380.5,78.5 380.5,77.5 380.5,76.5C 381.167,76.1667 381.833,75.8333 382.5,75.5 Z"/></g>
<g><path style="opacity:0.995" fill="#9a9a9a" d="M 470.5,77.5 C 473.569,77.963 474.069,79.2963 472,81.5C 469.988,80.4335 469.488,79.1002 470.5,77.5 Z"/></g>
<g><path style="opacity:1" fill="#ababab" d="M 475.5,77.5 C 477.97,78.3603 478.137,79.6936 476,81.5C 474.232,80.3181 474.065,78.9848 475.5,77.5 Z"/></g>
<g><path style="opacity:0.998" fill="#adadad" d="M 479.5,77.5 C 482.569,77.963 483.069,79.2963 481,81.5C 479.812,80.4366 479.312,79.1033 479.5,77.5 Z"/></g>
</svg>
