<svg version="1.0" xmlns="http://www.w3.org/2000/svg" width="697.333" height="128" viewBox="0 0 523 96"><path d="M282 28.8c0 .6-.8 1.3-1.7 1.5-1.6.4-1.6.5-.1.6 1.8.1 3.4-1.6 2.4-2.6-.3-.4-.6-.1-.6.5zM295.2 31c0 1.9.2 2.7.5 1.7.2-.9.2-2.5 0-3.5-.3-.9-.5-.1-.5 1.8zM298.2 30.8c-.1 2.2.3 3.5 1.5 3.9 1.5.6 1.5.7-.3 1.5-1.9.8-1.9.8 0 .5 2.3-.2 3.4-2.7 1.2-2.7-.9 0-1.6-1.2-1.9-3.3l-.4-3.2-.1 3.3zM324.2 31c0 1.9.2 2.7.5 1.7.2-.9.2-2.5 0-3.5-.3-.9-.5-.1-.5 1.8zM327.2 30.8c-.2 2.3.3 3.5 1.6 3.9 1.4.6 1.3.8-.8 1.5l-2.5.7 2.4-.2c2.7-.2 4.2-2.7 1.7-2.7-.9 0-1.6-1.2-1.9-3.3l-.4-3.2-.1 3.3zM341.1 30.6c0 1.1.3 1.4.6.6.3-.7.2-1.6-.1-1.9-.3-.4-.6.2-.5 1.3zM306.1 32.7c-.1 3.7-2 4.5-2.2 1-.1-1.8-.2-1.9-.6-.3-.3 1 0 2.3.6 2.9 1.7 1.7 3.3-.6 2.8-3.9-.4-2.9-.4-2.8-.6.3zM369.3 33.5c0 2.2.2 3 .4 1.7.2-1.2.2-3 0-4-.3-.9-.5.1-.4 2.3zM320.6 35.7c-.6 1.4-.5 1.5.5.6.7-.7 1-1.5.7-1.8-.3-.3-.9.2-1.2 1.2zM347.8 34.7c.6.2 1.8.2 2.5 0 .6-.3.1-.5-1.3-.5-1.4 0-1.9.2-1.2.5zM277.8 36.7c1.2.2 3 .2 4 0 .9-.3-.1-.5-2.3-.4-2.2 0-3 .2-1.7.4zM287.3 36.7c.9.2 2.3.2 3 0 .6-.3-.1-.5-1.8-.5-1.6 0-2.2.2-1.2.5zM314.8 36.7c.7.3 1.6.2 1.9-.1.4-.3-.2-.6-1.3-.5-1.1 0-1.4.3-.6.6zM336.8 36.7c.6.2 1.8.2 2.5 0 .6-.3.1-.5-1.3-.5-1.4 0-1.9.2-1.2.5zM347.8 36.7c.7.3 1.6.2 1.9-.1.4-.3-.2-.6-1.3-.5-1.1 0-1.4.3-.6.6zM288.8 58.7c.7.3 1.6.2 1.9-.1.4-.3-.2-.6-1.3-.5-1.1 0-1.4.3-.6.6zM336.8 58.7c.6.2 1.8.2 2.5 0 .6-.3.1-.5-1.3-.5-1.4 0-1.9.2-1.2.5zM362.8 58.7c.6.2 1.8.2 2.5 0 .6-.3.1-.5-1.3-.5-1.4 0-1.9.2-1.2.5zM426.8 58.7c.6.2 1.8.2 2.5 0 .6-.3.1-.5-1.3-.5-1.4 0-1.9.2-1.2.5z"/></svg>