<?xml version="1.0" standalone="no"?>
<!DOCTYPE svg PUBLIC "-//W3C//DTD SVG 20010904//EN"
 "http://www.w3.org/TR/2001/REC-SVG-20010904/DTD/svg10.dtd">
<svg version="1.0" xmlns="http://www.w3.org/2000/svg"
 width="600.000000pt" height="150.000000pt" viewBox="0 0 600.000000 150.000000"
 preserveAspectRatio="xMidYMid meet">

<g transform="translate(0.000000,150.000000) scale(0.100000,-0.100000)"
fill="#000000" stroke="none">
<path d="M0 750 l0 -750 3000 0 3000 0 0 750 0 750 -3000 0 -3000 0 0 -750z
m1720 220 c0 -33 -4 -60 -10 -60 -6 0 -10 27 -10 60 0 33 4 60 10 60 6 0 10
-27 10 -60z m50 50 c0 -5 -4 -10 -10 -10 -5 0 -10 5 -10 10 0 6 5 10 10 10 6
0 10 -4 10 -10z m1295 0 c-3 -5 -10 -10 -16 -10 -5 0 -9 5 -9 10 0 6 7 10 16
10 8 0 12 -4 9 -10z m155 0 c0 -5 -7 -10 -15 -10 -8 0 -15 5 -15 10 0 6 7 10
15 10 8 0 15 -4 15 -10z m-1655 -51 c18 -52 13 -77 -9 -46 -7 9 -19 17 -26 17
-7 0 -19 -8 -26 -17 -22 -31 -27 -6 -9 46 12 37 22 51 35 51 13 0 23 -14 35
-51z m1035 41 c0 -5 -9 -10 -20 -10 -11 0 -20 -4 -20 -10 0 -5 9 -10 20 -10
11 0 20 -4 20 -10 0 -5 -9 -10 -20 -10 -11 0 -20 -7 -20 -15 0 -8 9 -15 20
-15 11 0 20 -4 20 -10 0 -5 -16 -10 -35 -10 l-35 0 0 55 0 55 35 0 c19 0 35
-4 35 -10z m150 -22 c0 -5 -4 -8 -10 -8 -5 0 -10 -11 -10 -25 0 -14 5 -25 10
-25 6 0 10 -5 10 -11 0 -6 -10 -9 -22 -7 -18 2 -24 11 -28 38 -7 47 7 72 32
57 10 -7 18 -15 18 -19z m240 0 c0 -5 -4 -8 -10 -8 -5 0 -10 -11 -10 -25 0
-14 5 -25 10 -25 6 0 10 -5 10 -11 0 -6 -10 -9 -22 -7 -18 2 -24 11 -28 38 -7
47 7 72 32 57 10 -7 18 -15 18 -19z m470 23 c0 -5 -8 -7 -18 -4 -24 6 -44 -19
-40 -49 2 -17 11 -24 31 -26 30 -4 28 -22 -3 -22 -41 0 -68 68 -38 98 14 14
68 16 68 3z m121 -23 c15 -57 -40 -100 -82 -62 -21 19 -24 45 -8 75 8 16 19
19 46 17 30 -2 38 -8 44 -30z m70 5 c5 -16 12 -35 15 -43 4 -10 11 0 21 28 22
62 43 56 43 -13 0 -64 -20 -76 -21 -12 l-1 42 -15 -42 c-8 -24 -18 -43 -22
-43 -4 0 -14 19 -22 43 l-14 42 -3 -42 c-5 -62 -22 -53 -22 12 0 43 3 55 15
55 9 0 20 -12 26 -27z m187 -1 c3 -18 -3 -26 -27 -35 -17 -6 -32 -20 -34 -32
-2 -11 -5 6 -6 38 l-1 58 33 -3 c25 -2 33 -8 35 -26z m100 4 c2 -10 -2 -22 -9
-26 -10 -7 -9 -14 5 -34 9 -14 12 -26 6 -26 -5 0 -17 11 -26 26 -18 26 -29 23
-37 -11 -3 -11 -5 6 -6 38 l-1 58 32 -3 c23 -2 34 -9 36 -22z m123 0 c25 -53
-24 -108 -70 -79 -20 12 -27 69 -10 89 19 24 68 18 80 -10z m55 -11 c9 -49 19
-51 33 -5 6 22 17 40 22 40 6 0 9 -6 6 -14 -3 -8 -11 -32 -18 -55 -7 -23 -18
-41 -25 -41 -7 0 -19 21 -28 47 -19 54 -19 63 -6 63 5 0 12 -16 16 -35z m157
-17 c16 -52 14 -78 -4 -45 -6 9 -19 17 -29 17 -10 0 -23 -8 -29 -17 -18 -33
-20 -7 -4 45 11 34 22 52 33 52 11 0 22 -18 33 -52z m115 40 c14 -14 16 -57 4
-76 -5 -7 -25 -15 -45 -19 l-37 -6 0 57 0 56 33 0 c18 0 38 -5 45 -12z m115
-40 c16 -52 14 -78 -4 -45 -6 9 -19 17 -29 17 -10 0 -23 -8 -29 -17 -18 -33
-20 -7 -4 45 11 34 22 52 33 52 11 0 22 -18 33 -52z m-2835 20 c29 -24 2 -88
-33 -74 -11 4 -15 -1 -15 -19 0 -14 -4 -25 -10 -25 -6 0 -10 28 -10 64 0 63 0
64 28 64 15 0 33 -5 40 -10z m102 -33 c0 -25 -4 -45 -10 -45 -5 0 -10 20 -10
45 0 25 5 45 10 45 6 0 10 -20 10 -45z m100 -22 c0 -35 -4 -63 -10 -63 -5 0
-10 10 -10 23 0 18 -5 23 -21 23 -31 -1 -46 26 -31 58 8 19 18 24 41 24 l31
-1 0 -64z m50 32 c0 -24 5 -35 15 -35 8 0 17 14 21 35 9 49 24 44 24 -9 l0
-44 -37 1 c-37 2 -38 3 -41 45 -2 25 1 42 7 42 6 0 11 -16 11 -35z m148 23
c22 -22 13 -38 -19 -38 -17 0 -28 -4 -24 -10 3 -5 15 -10 26 -10 10 0 19 -4
19 -10 0 -14 -43 -13 -58 2 -26 26 -7 78 28 78 9 0 21 -5 28 -12z m143 -15 c7
-21 5 -23 -21 -23 -17 0 -30 -4 -30 -10 0 -5 11 -10 25 -10 14 0 25 -4 25 -10
0 -5 -14 -10 -30 -10 -32 0 -53 30 -42 60 13 37 60 38 73 3z m79 17 c0 -5 -10
-10 -22 -11 l-23 0 23 -11 c33 -16 26 -52 -10 -56 -16 -2 -28 1 -28 7 0 6 10
11 23 11 l22 0 -24 19 c-30 23 -22 51 14 51 14 0 25 -4 25 -10z m80 0 c0 -5
-10 -10 -22 -11 l-23 0 23 -11 c33 -16 26 -52 -10 -56 -16 -2 -28 1 -28 7 0 6
10 11 23 11 l22 0 -24 19 c-30 23 -22 51 14 51 14 0 25 -4 25 -10z m88 -35 c3
-40 2 -41 -33 -43 -31 -2 -35 0 -35 23 0 20 5 25 25 25 14 0 25 5 25 10 0 6
-9 10 -20 10 -11 0 -20 5 -20 11 0 6 12 9 28 7 24 -3 27 -8 30 -43z m217 35
c3 -6 -4 -10 -17 -10 l-23 0 24 -19 c30 -23 22 -51 -14 -51 -31 0 -34 20 -2
21 l22 0 -22 11 c-22 11 -30 37 -16 51 10 10 41 8 48 -3z m155 2 c0 -4 -9 -13
-20 -20 -11 -7 -20 -23 -20 -37 0 -14 -4 -25 -10 -25 -5 0 -10 20 -10 43 0 42
1 44 30 45 17 0 30 -2 30 -6z m78 -37 c3 -40 2 -41 -33 -43 -31 -2 -35 0 -35
23 0 20 5 25 25 25 14 0 25 5 25 10 0 6 -9 10 -20 10 -11 0 -20 5 -20 11 0 6
12 9 28 7 24 -3 27 -8 30 -43z m156 39 c27 -10 20 -44 -9 -44 -14 0 -25 -4
-25 -10 0 -5 11 -10 25 -10 14 0 25 -4 25 -10 0 -19 -59 -11 -70 9 -14 27 -13
37 6 55 17 18 24 19 48 10z m116 2 c0 -25 -23 -56 -42 -57 -18 -1 -16 -3 10
-10 17 -5 32 -16 32 -24 0 -21 -38 -38 -67 -30 -22 5 -24 10 -18 33 4 15 7 38
6 51 0 12 2 27 5 32 5 9 74 13 74 5z m40 -41 c0 -33 -4 -45 -15 -45 -11 0 -15
12 -15 45 0 33 4 45 15 45 11 0 15 -12 15 -45z m88 0 c3 -40 2 -41 -33 -43
-31 -2 -35 0 -35 23 0 20 5 25 25 25 14 0 25 5 25 10 0 6 -9 10 -20 10 -11 0
-20 5 -20 11 0 6 12 9 28 7 24 -3 27 -8 30 -43z m-1603 -125 c-3 -5 -11 -10
-16 -10 -6 0 -7 5 -4 10 3 6 11 10 16 10 6 0 7 -4 4 -10z m1969 -29 c3 -5 -6
-8 -19 -8 -14 0 -25 3 -25 8 0 5 9 9 19 9 11 0 22 -4 25 -9z m316 -1 c0 -5 -4
-10 -10 -10 -5 0 -10 5 -10 10 0 6 5 10 10 10 6 0 10 -4 10 -10z m-2495 -30
c0 -16 -8 -28 -22 -35 -13 -5 -23 -18 -23 -27 0 -10 -4 -18 -10 -18 -5 0 -10
25 -10 56 l0 55 33 -3 c27 -2 32 -7 32 -28z m102 14 c3 -9 2 -24 -4 -33 -7
-11 -6 -22 5 -38 20 -32 2 -29 -25 5 l-22 27 -1 -27 c0 -16 -4 -28 -10 -28 -5
0 -10 25 -10 55 0 55 0 55 30 55 19 0 33 -6 37 -16z m121 4 c20 -20 15 -76 -7
-88 -27 -14 -47 -13 -65 6 -19 18 -21 65 -4 82 15 15 61 15 76 0z m69 -10 l10
-23 12 23 c6 12 17 22 23 22 6 0 3 -11 -7 -26 -15 -24 -15 -27 0 -51 22 -32
11 -43 -13 -13 l-19 24 -12 -22 c-6 -12 -16 -22 -22 -22 -6 0 -2 13 7 29 16
28 16 31 0 55 -13 20 -14 26 -3 26 8 0 18 -10 24 -22z m103 -33 c0 -30 -4 -55
-10 -55 -5 0 -10 25 -10 55 0 30 5 55 10 55 6 0 10 -25 10 -55z m73 13 c10
-28 17 -38 21 -28 3 8 10 27 15 43 6 15 17 27 26 27 12 0 15 -12 15 -55 0 -65
-17 -74 -22 -12 l-3 42 -14 -43 c-17 -51 -30 -50 -47 4 l-12 39 -1 -42 c-2
-64 -21 -52 -21 12 0 69 21 75 43 13z m195 30 c17 -17 15 -64 -4 -82 -18 -19
-38 -20 -65 -6 -22 12 -27 68 -7 88 15 15 61 15 76 0z m-910 -20 c18 -15 16
-78 -3 -78 -11 0 -15 11 -15 36 0 45 -24 42 -28 -4 -5 -48 -22 -38 -22 12 0
41 2 44 28 44 15 0 33 -5 40 -10z m102 -2 c28 -35 -11 -93 -47 -70 -36 22 -23
84 17 84 10 0 23 -7 30 -14z m950 4 c0 -5 -9 -10 -20 -10 -15 0 -20 -7 -20
-25 0 -18 5 -25 20 -25 11 0 20 -4 20 -10 0 -14 -43 -13 -58 2 -29 29 -7 78
35 78 13 0 23 -4 23 -10z m94 -22 c7 -19 6 -31 -4 -42 -17 -22 -57 -20 -70 3
-14 27 -13 37 6 56 24 23 57 15 68 -17z m94 20 c18 -15 16 -78 -3 -78 -11 0
-15 11 -15 36 0 45 -24 42 -28 -4 -5 -48 -22 -38 -22 12 0 41 2 44 28 44 15 0
33 -5 40 -10z m92 3 c0 -5 -9 -11 -20 -14 -11 -3 -20 -13 -20 -22 0 -9 9 -19
20 -22 30 -8 24 -25 -7 -21 -22 2 -29 9 -31 31 -2 16 2 35 9 43 13 15 49 19
49 5z m50 -26 c0 -24 5 -35 15 -35 11 0 15 11 15 36 0 50 24 39 28 -13 3 -40
3 -40 -35 -41 -20 -1 -41 4 -45 11 -9 15 -10 61 -1 70 15 15 23 5 23 -28z
m140 27 c0 -4 -9 -13 -20 -20 -11 -7 -20 -23 -20 -37 0 -14 -4 -25 -10 -25 -5
0 -10 20 -10 43 0 42 1 44 30 45 17 0 30 -2 30 -6z m70 -2 c0 -5 -9 -10 -21
-10 -21 0 -21 0 2 -18 28 -24 20 -52 -16 -52 -14 0 -25 5 -25 10 0 6 10 10 23
10 l22 0 -24 19 c-30 23 -22 51 14 51 14 0 25 -4 25 -10z m90 -4 c28 -35 -11
-93 -47 -70 -36 22 -23 84 17 84 10 0 23 -7 30 -14z m150 -53 c0 -39 -4 -63
-11 -63 -6 0 -13 9 -16 19 -3 11 -15 21 -27 23 -16 2 -22 11 -24 37 -4 38 8
50 50 49 28 -1 28 -2 28 -65z m50 32 c0 -24 5 -35 15 -35 10 0 15 11 15 35 0
19 5 35 10 35 6 0 10 -20 10 -45 0 -44 0 -45 -34 -45 -37 0 -46 12 -46 61 0
19 5 29 15 29 10 0 15 -11 15 -35z m134 29 c27 -10 20 -44 -9 -44 -14 0 -25
-4 -25 -10 0 -5 11 -10 25 -10 14 0 25 -4 25 -10 0 -19 -59 -11 -70 9 -14 27
-13 37 6 55 17 18 24 19 48 10z m104 -21 l10 -28 11 28 c10 25 31 38 31 18 0
-22 -32 -81 -43 -81 -12 0 -37 53 -37 78 0 22 18 12 28 -15z m128 19 c32 -22
18 -82 -19 -82 -29 0 -47 17 -47 45 0 36 37 57 66 37z m99 -2 c3 -5 -3 -10
-13 -10 -20 0 -36 -25 -26 -41 3 -5 14 -9 25 -9 10 0 19 -4 19 -10 0 -14 -43
-13 -58 2 -27 27 -7 78 29 78 10 0 21 -4 24 -10z m79 4 c27 -10 20 -44 -9 -44
-14 0 -25 -4 -25 -10 0 -5 11 -10 25 -10 14 0 25 -5 25 -11 0 -16 -62 -6 -73
13 -8 12 -7 24 1 42 12 26 27 31 56 20z m136 -4 c0 -5 -10 -10 -22 -11 l-23 0
23 -11 c33 -16 26 -52 -10 -56 -16 -2 -28 1 -28 7 0 6 10 11 23 11 l22 0 -24
19 c-30 23 -22 51 14 51 14 0 25 -4 25 -10z m88 -2 c22 -22 13 -38 -19 -38
-17 0 -28 -4 -24 -10 3 -5 15 -10 26 -10 10 0 19 -4 19 -10 0 -14 -43 -13 -58
2 -26 26 -7 78 28 78 9 0 21 -5 28 -12z m92 -33 c0 -25 -4 -45 -10 -45 -5 0
-10 20 -10 45 0 25 5 45 10 45 6 0 10 -20 10 -45z m108 -2 c4 -50 -15 -59 -20
-10 -2 20 -8 32 -18 32 -10 0 -16 -12 -18 -32 -5 -49 -22 -40 -22 11 l0 44 38
-1 c36 -2 37 -3 40 -44z m82 37 c0 -5 -10 -10 -22 -11 l-23 0 23 -11 c33 -16
26 -52 -10 -56 -16 -2 -28 1 -28 7 0 6 10 11 23 11 l22 0 -24 19 c-30 23 -22
51 14 51 14 0 25 -4 25 -10z m80 1 c0 -5 -9 -11 -20 -14 -11 -3 -20 -13 -20
-22 0 -9 9 -19 20 -22 30 -8 24 -25 -7 -21 -22 2 -29 9 -31 31 -2 16 2 35 9
43 13 15 49 19 49 5z m80 -1 c0 -4 -7 -10 -15 -14 -9 -3 -15 -18 -15 -36 0
-16 -4 -30 -10 -30 -5 0 -10 19 -10 43 0 38 2 42 25 43 14 1 25 -2 25 -6z m74
4 c27 -10 20 -44 -9 -44 -14 0 -25 -4 -25 -10 0 -5 11 -10 25 -10 14 0 25 -5
25 -11 0 -16 -62 -6 -73 13 -8 12 -7 24 1 42 12 26 27 31 56 20z m61 -26 c8
-18 14 -26 15 -17 0 20 26 56 35 48 9 -10 -26 -89 -40 -89 -7 0 -18 12 -23 28
-5 15 -13 35 -17 45 -13 32 16 18 30 -15z m133 20 c22 -22 13 -38 -19 -38 -17
0 -28 -4 -24 -10 3 -5 15 -10 26 -10 10 0 19 -4 19 -10 0 -14 -43 -13 -58 2
-26 26 -7 78 28 78 9 0 21 -5 28 -12z m82 0 c0 -5 -7 -11 -15 -14 -9 -4 -15
-19 -15 -35 0 -16 -4 -29 -10 -29 -5 0 -10 20 -10 44 0 40 2 44 25 44 14 0 25
-5 25 -10z m40 -68 c0 -5 -4 -10 -10 -10 -5 0 -10 5 -10 10 0 6 5 10 10 10 6
0 10 -4 10 -10z m50 0 c0 -5 -7 -10 -15 -10 -8 0 -15 5 -15 10 0 6 7 10 15 10
8 0 15 -4 15 -10z m45 0 c-3 -5 -10 -10 -16 -10 -5 0 -9 5 -9 10 0 6 7 10 16
10 8 0 12 -4 9 -10z"/>
<path d="M1520 975 c0 -8 5 -15 10 -15 6 0 10 7 10 15 0 8 -4 15 -10 15 -5 0
-10 -7 -10 -15z"/>
<path d="M3510 995 c-19 -23 -4 -65 24 -65 27 0 37 24 25 58 -10 25 -31 29
-49 7z"/>
<path d="M3787 1004 c-14 -15 -6 -34 14 -34 14 0 19 5 17 17 -3 18 -20 27 -31
17z"/>
<path d="M3884 999 c-10 -17 13 -36 27 -22 12 12 4 33 -11 33 -5 0 -12 -5 -16
-11z"/>
<path d="M3994 996 c-3 -8 -4 -25 -2 -38 4 -33 52 -33 56 0 6 40 -41 73 -54
38z"/>
<path d="M4230 974 c0 -14 5 -24 11 -22 6 2 10 7 10 11 -1 4 -1 14 -1 22 0 8
-4 15 -10 15 -5 0 -10 -12 -10 -26z"/>
<path d="M4330 969 c0 -36 2 -40 23 -37 39 5 31 78 -9 78 -10 0 -14 -13 -14
-41z"/>
<path d="M4460 974 c0 -14 5 -24 11 -22 6 2 10 7 10 11 -1 4 -1 14 -1 22 0 8
-4 15 -10 15 -5 0 -10 -12 -10 -26z"/>
<path d="M1624 965 c-3 -8 -3 -19 1 -25 11 -18 25 -11 25 15 0 27 -17 34 -26
10z"/>
<path d="M1820 956 c0 -17 5 -26 16 -26 10 0 14 7 12 22 -5 32 -28 35 -28 4z"/>
<path d="M2030 970 c0 -5 5 -10 10 -10 6 0 10 5 10 10 0 6 -4 10 -10 10 -5 0
-10 -4 -10 -10z"/>
<path d="M2160 970 c0 -5 7 -10 15 -10 8 0 15 5 15 10 0 6 -7 10 -15 10 -8 0
-15 -4 -15 -10z"/>
<path d="M2415 940 c-3 -5 1 -10 9 -10 9 0 16 5 16 10 0 6 -4 10 -9 10 -6 0
-13 -4 -16 -10z"/>
<path d="M2865 940 c-3 -5 1 -10 9 -10 9 0 16 5 16 10 0 6 -4 10 -9 10 -6 0
-13 -4 -16 -10z"/>
<path d="M3030 970 c0 -5 7 -10 15 -10 8 0 15 5 15 10 0 6 -7 10 -15 10 -8 0
-15 -4 -15 -10z"/>
<path d="M3122 971 c2 -7 7 -12 11 -12 12 1 9 15 -3 20 -7 2 -11 -2 -8 -8z"/>
<path d="M3115 900 c-3 -5 3 -10 14 -10 12 0 21 5 21 10 0 6 -6 10 -14 10 -8
0 -18 -4 -21 -10z"/>
<path d="M3265 940 c-3 -5 1 -10 9 -10 9 0 16 5 16 10 0 6 -4 10 -9 10 -6 0
-13 -4 -16 -10z"/>
<path d="M1450 771 c0 -12 6 -21 16 -21 9 0 14 7 12 17 -5 25 -28 28 -28 4z"/>
<path d="M1550 770 c0 -13 5 -20 13 -17 6 2 12 10 12 17 0 7 -6 15 -12 18 -8
2 -13 -5 -13 -18z"/>
<path d="M1661 776 c-21 -25 -10 -61 19 -61 22 0 25 4 25 35 0 38 -23 52 -44
26z"/>
<path d="M2094 776 c-3 -8 -4 -25 -2 -38 4 -33 52 -33 56 0 6 40 -41 73 -54
38z"/>
<path d="M1303 744 c-8 -21 13 -42 28 -27 13 13 5 43 -11 43 -6 0 -13 -7 -17
-16z"/>
<path d="M2340 735 c0 -16 6 -25 15 -25 9 0 15 9 15 25 0 16 -6 25 -15 25 -9
0 -15 -9 -15 -25z"/>
<path d="M2883 744 c-8 -21 13 -42 28 -27 13 13 5 43 -11 43 -6 0 -13 -7 -17
-16z"/>
<path d="M3023 744 c-8 -21 13 -42 28 -27 13 13 5 43 -11 43 -6 0 -13 -7 -17
-16z"/>
<path d="M3230 750 c0 -5 7 -10 15 -10 8 0 15 5 15 10 0 6 -7 10 -15 10 -8 0
-15 -4 -15 -10z"/>
<path d="M3460 736 c0 -17 5 -26 16 -26 10 0 14 7 12 22 -5 32 -28 35 -28 4z"/>
<path d="M3640 750 c0 -5 7 -10 15 -10 8 0 15 5 15 10 0 6 -7 10 -15 10 -8 0
-15 -4 -15 -10z"/>
<path d="M3860 750 c0 -5 5 -10 10 -10 6 0 10 5 10 10 0 6 -4 10 -10 10 -5 0
-10 -4 -10 -10z"/>
<path d="M4380 750 c0 -5 7 -10 15 -10 8 0 15 5 15 10 0 6 -7 10 -15 10 -8 0
-15 -4 -15 -10z"/>
<path d="M4570 750 c0 -5 5 -10 10 -10 6 0 10 5 10 10 0 6 -4 10 -10 10 -5 0
-10 -4 -10 -10z"/>
</g>
</svg>
