<?xml version="1.0" standalone="no"?>
<!DOCTYPE svg PUBLIC "-//W3C//DTD SVG 20010904//EN"
 "http://www.w3.org/TR/2001/REC-SVG-20010904/DTD/svg10.dtd">
<svg version="1.0" xmlns="http://www.w3.org/2000/svg"
 width="1000.000000pt" height="200.000000pt" viewBox="0 0 1000.000000 200.000000"
 preserveAspectRatio="xMidYMid meet">

<g transform="translate(0.000000,200.000000) scale(0.100000,-0.100000)"
fill="#000000" stroke="none">
<path d="M0 1000 l0 -1000 5000 0 5000 0 0 1000 0 1000 -5000 0 -5000 0 0
-1000z m3140 224 c0 -8 -9 -14 -20 -14 -19 0 -27 19 -14 33 10 9 34 -4 34 -19z
m2124 -5 c-3 -5 -14 -9 -25 -9 -21 0 -26 26 -6 33 15 5 39 -12 31 -24z m-2194
-64 c0 -84 0 -85 -25 -85 -25 0 -25 1 -25 85 0 84 0 85 25 85 25 0 25 -1 25
-85z m1966 70 c-26 -19 -47 -19 -40 0 4 8 18 15 33 15 25 -1 25 -1 7 -15z
m-2199 -69 c29 -86 29 -86 -2 -86 -16 0 -25 6 -25 15 0 10 -10 15 -30 15 -20
0 -30 -5 -30 -15 0 -9 -10 -15 -26 -15 -17 0 -24 5 -22 13 3 6 15 43 28 80 21
66 23 68 53 65 28 -3 32 -8 54 -72z m1503 59 c0 -9 -9 -15 -25 -15 -16 0 -25
-6 -25 -15 0 -9 9 -15 25 -15 16 0 25 -6 25 -15 0 -9 -9 -15 -25 -15 -16 0
-25 -6 -25 -15 0 -9 9 -15 25 -15 18 0 25 -5 25 -20 0 -17 -7 -20 -45 -20
l-45 0 0 80 0 80 45 0 c33 0 45 -4 45 -15z m1268 -7 c3 -15 -2 -17 -27 -12
-26 5 -32 3 -42 -20 -10 -20 -10 -32 0 -52 10 -23 16 -25 42 -20 25 5 30 3 27
-12 -5 -25 -59 -28 -89 -4 -18 15 -24 30 -24 62 0 32 6 47 24 62 30 24 84 21
89 -4z m162 2 c27 -27 27 -89 0 -118 -48 -52 -130 -14 -130 60 0 49 28 78 75
78 22 0 43 -8 55 -20z m125 -35 c8 -30 17 -55 20 -55 2 0 11 25 20 55 13 48
19 55 40 55 25 0 25 -2 25 -80 0 -64 -3 -80 -15 -80 -11 0 -15 14 -16 58 l-1
57 -18 -55 c-12 -39 -23 -56 -37 -58 -15 -2 -22 8 -35 55 l-16 58 -1 -57 c-1
-45 -5 -58 -16 -58 -12 0 -15 16 -15 80 0 78 1 80 24 80 21 0 27 -8 41 -55z
m245 35 c11 -11 20 -23 20 -28 0 -18 -32 -51 -53 -54 -16 -2 -23 -11 -25 -30
-2 -20 -9 -28 -23 -28 -17 0 -19 8 -19 80 l0 80 40 0 c27 0 47 -7 60 -20z
m144 4 c19 -18 20 -38 4 -63 -9 -15 -7 -24 11 -50 l22 -31 -23 0 c-16 0 -30
10 -41 30 -10 17 -22 30 -28 30 -5 0 -9 -13 -9 -30 0 -20 -5 -30 -15 -30 -12
0 -15 16 -15 80 l0 80 39 0 c23 0 46 -7 55 -16z m181 -4 c11 -12 18 -35 18
-62 0 -48 -28 -78 -73 -78 -45 0 -73 30 -73 78 0 55 24 82 73 82 24 0 43 -7
55 -20z m98 -37 c15 -60 18 -59 37 15 8 31 16 42 30 42 25 0 25 -1 -3 -86 -20
-58 -28 -69 -48 -72 -22 -3 -27 4 -51 78 l-26 80 23 0 c19 0 25 -8 38 -57z
m229 -23 l26 -80 -24 0 c-15 0 -24 6 -24 15 0 10 -10 15 -29 15 -16 0 -31 -6
-35 -15 -3 -8 -15 -15 -27 -15 -13 0 -19 5 -17 13 3 6 15 42 27 80 21 61 25
67 50 67 25 0 29 -6 53 -80z m141 69 c30 -16 37 -28 37 -65 0 -48 -28 -75 -83
-81 l-47 -6 0 82 0 81 36 0 c19 0 45 -5 57 -11z m189 -69 l26 -80 -24 0 c-15
0 -24 6 -24 15 0 10 -10 15 -29 15 -16 0 -31 -6 -35 -15 -3 -8 -15 -15 -27
-15 -13 0 -19 5 -17 13 3 6 15 42 27 80 21 61 25 67 50 67 25 0 29 -6 53 -80z
m-2582 55 c0 -8 7 -15 15 -15 8 0 15 -7 15 -15 0 -8 -7 -15 -15 -15 -10 0 -15
-10 -15 -30 0 -20 5 -30 15 -30 8 0 15 -7 15 -16 0 -11 -8 -14 -32 -12 -31 3
-33 6 -36 43 -2 22 -8 43 -14 46 -6 4 -4 16 7 33 19 28 45 35 45 11z m350 0
c0 -8 7 -15 15 -15 8 0 15 -7 15 -15 0 -8 -7 -15 -15 -15 -10 0 -15 -10 -15
-30 0 -20 5 -30 15 -30 8 0 15 -7 15 -16 0 -11 -8 -14 -32 -12 -31 3 -33 6
-36 43 -2 22 -8 43 -14 46 -6 4 -4 16 7 33 19 28 45 35 45 11z m-1906 -27 c34
-48 10 -115 -37 -106 -24 5 -27 2 -27 -23 0 -22 -5 -29 -20 -29 -18 0 -20 7
-20 86 l0 86 25 -4 c14 -3 28 -1 31 3 9 16 33 9 48 -13z m277 12 l29 0 0 -85
c0 -84 0 -85 -25 -85 -21 0 -25 5 -25 29 0 24 -3 28 -23 24 -31 -6 -51 20 -50
65 1 38 27 67 51 57 8 -3 27 -5 43 -5z m297 -6 c12 -8 22 -26 22 -40 0 -21 -5
-24 -35 -24 -19 0 -35 -4 -35 -10 0 -5 14 -10 30 -10 20 0 30 -5 30 -15 0 -26
-75 -20 -94 7 -22 31 -20 64 4 88 24 24 48 25 78 4z m200 0 c12 -8 22 -26 22
-40 0 -21 -4 -24 -41 -24 -26 0 -38 -4 -33 -11 3 -6 19 -9 35 -7 23 4 29 1 29
-14 0 -14 -8 -18 -37 -18 -45 0 -73 24 -73 62 0 31 31 68 58 68 10 0 28 -7 40
-16z m131 7 c19 -12 3 -33 -20 -26 -27 9 -24 -8 4 -20 26 -12 34 -47 13 -64
-21 -18 -80 -10 -84 11 -3 15 2 17 30 12 31 -5 32 -5 13 10 -52 40 -54 45 -29
70 17 18 51 21 73 7z m120 0 c19 -12 3 -33 -20 -26 -27 9 -24 -8 4 -20 26 -12
34 -47 13 -64 -21 -18 -80 -10 -84 11 -3 15 2 17 30 12 31 -5 32 -5 13 10 -52
40 -54 45 -29 70 17 18 51 21 73 7z m133 -8 c13 -11 18 -30 18 -64 l0 -48 -57
2 c-57 2 -58 2 -58 32 0 25 5 32 33 40 17 5 32 13 32 18 0 4 -10 5 -21 2 -27
-9 -47 17 -21 27 29 11 55 9 74 -9z m302 11 c9 -3 16 -13 16 -21 0 -11 -7 -14
-27 -9 -27 6 -27 6 -9 -9 11 -8 24 -15 29 -15 4 0 7 -15 5 -32 -3 -31 -6 -33
-45 -36 -37 -3 -43 0 -43 16 0 15 6 18 28 15 l27 -4 -27 21 c-32 25 -36 54
-10 69 20 12 34 13 56 5z m236 -13 c0 -10 -9 -21 -20 -24 -16 -4 -20 -14 -20
-46 0 -37 -2 -41 -25 -41 -24 0 -25 3 -25 61 0 60 1 61 24 57 14 -3 31 -1 38
3 20 13 28 11 28 -10z m111 9 c15 -9 19 -22 19 -64 l0 -53 -47 -1 c-49 0 -73
11 -73 34 0 21 30 44 56 44 14 0 22 4 19 10 -3 6 -17 7 -31 4 -17 -5 -24 -2
-24 9 0 26 46 35 81 17z m247 -6 c12 -8 22 -26 22 -40 0 -21 -4 -24 -41 -24
-26 0 -38 -4 -33 -11 3 -6 19 -9 35 -7 23 4 29 1 29 -14 0 -14 -8 -18 -37 -18
-45 0 -73 24 -73 62 0 31 31 68 58 68 10 0 28 -7 40 -16z m159 2 c2 -1 -2 -17
-8 -34 -8 -23 -20 -35 -42 -41 l-32 -9 31 -1 c34 -1 54 -17 54 -43 0 -23 -30
-38 -80 -38 -42 0 -61 19 -43 43 15 19 22 56 12 63 -15 9 -10 41 8 59 12 13
26 15 57 11 22 -4 42 -8 43 -10z m193 -6 c14 -14 20 -33 20 -64 l0 -45 -57 2
c-57 2 -58 2 -58 32 0 25 5 32 33 41 18 5 30 13 26 16 -3 4 -13 4 -21 1 -8 -3
-19 0 -24 8 -5 10 -3 16 9 21 30 12 52 8 72 -12z m-2250 -50 c0 -53 -2 -60
-20 -60 -18 0 -20 7 -20 60 0 53 2 60 20 60 18 0 20 -7 20 -60z m222 18 c2
-24 8 -43 13 -43 6 0 11 19 13 43 3 37 6 42 28 42 23 0 24 -3 24 -59 l0 -59
-55 -1 c-51 0 -57 2 -65 25 -6 14 -10 41 -10 60 0 29 3 34 24 34 22 0 25 -5
28 -42z m1898 -18 c0 -53 -2 -60 -20 -60 -18 0 -20 7 -20 60 0 53 2 60 20 60
18 0 20 -7 20 -60z m-2244 -175 c-27 -21 -53 -20 -36 0 7 8 22 15 34 15 21 -1
21 -1 2 -15z m3354 -41 c0 -8 -9 -14 -20 -14 -19 0 -27 19 -14 33 10 9 34 -4
34 -19z m-471 3 c9 -11 2 -14 -35 -15 -38 0 -43 2 -33 14 15 18 53 18 68 1z
m-3188 -7 c22 -12 26 -59 7 -78 -7 -7 -22 -12 -35 -12 -19 0 -23 -5 -23 -30 0
-23 -4 -30 -20 -30 -18 0 -20 7 -20 80 l0 80 36 0 c19 0 44 -5 55 -10z m150
-9 c23 -19 23 -21 8 -49 -15 -27 -15 -31 2 -53 24 -31 24 -39 -1 -39 -12 0
-26 12 -35 30 -9 17 -20 30 -25 30 -6 0 -10 -13 -10 -30 0 -23 -4 -30 -20 -30
-18 0 -20 7 -20 80 l0 80 39 0 c24 0 48 -8 62 -19z m179 -1 c13 -13 20 -33 20
-60 0 -75 -73 -107 -125 -55 -35 34 -30 101 9 127 22 15 76 8 96 -12z m102 -7
l16 -27 13 27 c8 18 20 27 36 27 26 0 25 -3 -10 -53 l-19 -28 26 -34 c31 -40
32 -45 9 -45 -10 0 -27 12 -39 28 l-22 27 -13 -27 c-8 -19 -20 -28 -36 -28
l-24 0 26 37 c30 45 30 51 5 83 -24 31 -25 40 -2 40 9 0 25 -12 34 -27z m158
-53 c0 -73 -2 -80 -20 -80 -18 0 -20 7 -20 80 0 73 2 80 20 80 18 0 20 -7 20
-80z m111 20 c15 -52 17 -54 26 -30 6 14 14 40 18 58 6 27 11 32 36 32 l29 0
0 -80 c0 -73 -2 -80 -20 -80 -18 0 -20 7 -21 58 l-1 57 -15 -58 c-13 -49 -19
-58 -36 -55 -14 2 -24 18 -37 58 l-18 55 -1 -57 c-1 -44 -5 -58 -16 -58 -12 0
-15 16 -15 81 l0 80 27 -3 c23 -3 29 -11 44 -58z m269 40 c13 -13 20 -33 20
-60 0 -75 -73 -107 -125 -55 -35 34 -30 101 9 127 22 15 76 8 96 -12z m-1312
-22 c7 -7 12 -36 12 -65 0 -46 -3 -53 -20 -53 -17 0 -20 7 -20 45 0 32 -4 45
-14 45 -17 0 -26 -22 -26 -61 0 -22 -5 -29 -20 -29 -18 0 -20 7 -20 61 0 60 0
61 25 57 14 -3 28 -1 31 3 8 13 38 11 52 -3z m140 -4 c15 -10 22 -25 22 -49 0
-41 -22 -65 -60 -65 -38 0 -60 24 -60 65 0 35 28 65 60 65 9 0 26 -7 38 -16z
m1371 7 c19 -12 4 -31 -25 -31 -22 0 -25 -4 -22 -27 3 -24 7 -28 31 -26 22 1
28 -2 25 -15 -4 -24 -70 -29 -88 -7 -44 53 22 142 79 106z m129 -7 c15 -10 22
-25 22 -49 0 -41 -22 -65 -60 -65 -38 0 -60 24 -60 65 0 35 28 65 60 65 9 0
26 -7 38 -16z m156 0 c10 -10 16 -33 16 -65 0 -42 -3 -49 -20 -49 -16 0 -20 7
-20 33 0 17 -4 38 -9 46 -15 23 -31 2 -31 -40 0 -32 -3 -39 -20 -39 -18 0 -20
7 -20 61 0 55 2 61 19 56 10 -2 25 -1 32 4 21 13 36 11 53 -7z m130 10 c22 -9
7 -34 -21 -34 -21 0 -24 -4 -21 -27 2 -22 8 -28 26 -27 15 0 22 -5 22 -18 0
-31 -70 -21 -89 13 -31 56 22 117 83 93z m276 -12 c0 -9 -10 -22 -22 -27 -17
-7 -24 -20 -26 -47 -3 -30 -7 -38 -23 -38 -17 0 -19 7 -19 61 0 60 1 61 24 57
14 -3 31 -1 38 3 20 13 28 11 28 -9z m99 9 c19 -12 3 -33 -20 -26 -27 9 -24
-8 4 -20 13 -6 23 -21 25 -37 3 -22 -2 -29 -21 -33 -37 -10 -72 -2 -72 15 0
11 9 14 30 12 29 -2 29 -2 11 13 -11 8 -23 15 -27 15 -11 0 -19 28 -13 44 9
23 58 32 83 17z m136 -16 c29 -28 31 -51 9 -83 -12 -18 -24 -22 -52 -20 -85 7
-79 123 6 127 7 1 24 -10 37 -24z m196 15 l29 0 0 -85 c0 -84 0 -85 -25 -85
-21 0 -25 5 -25 29 0 24 -3 28 -23 24 -31 -6 -51 20 -50 65 1 38 27 67 51 57
8 -3 27 -5 43 -5z m297 -6 c12 -8 22 -26 22 -40 0 -21 -5 -24 -35 -24 -19 0
-35 -4 -35 -10 0 -5 14 -10 30 -10 20 0 30 -5 30 -15 0 -21 -68 -20 -92 2 -24
21 -23 68 2 93 24 24 48 25 78 4z m340 0 c15 -10 22 -25 22 -49 0 -41 -22 -65
-60 -65 -38 0 -60 24 -60 65 0 35 28 65 60 65 9 0 26 -7 38 -16z m136 10 c22
-9 7 -34 -21 -34 -21 0 -24 -4 -21 -27 2 -22 8 -28 26 -27 15 0 22 -5 22 -18
0 -31 -70 -21 -89 13 -31 56 22 117 83 93z m138 -17 c4 -7 8 -22 8 -34 0 -20
-5 -23 -35 -23 -19 0 -35 -4 -35 -10 0 -5 16 -10 36 -10 24 0 34 -4 32 -12 -3
-8 -22 -13 -48 -13 -37 0 -47 4 -59 26 -12 22 -12 31 -2 57 7 17 20 33 29 35
24 7 65 -2 74 -16z m177 14 c20 -13 3 -33 -22 -26 -19 6 -18 3 6 -17 21 -17
28 -31 25 -48 -3 -22 -9 -25 -45 -28 -37 -3 -43 0 -43 16 0 15 6 18 28 15 26
-4 26 -4 8 11 -11 9 -23 16 -28 16 -4 0 -8 11 -8 25 0 36 46 57 79 36z m129
-7 c12 -8 22 -26 22 -40 0 -21 -5 -24 -35 -24 -19 0 -35 -4 -35 -10 0 -5 14
-10 30 -10 20 0 30 -5 30 -15 0 -26 -75 -20 -94 7 -22 31 -20 64 4 88 24 24
48 25 78 4z m283 6 c15 -9 19 -22 19 -65 0 -48 -3 -55 -19 -55 -16 0 -20 8
-23 43 -2 29 -8 42 -18 42 -10 0 -16 -13 -18 -42 -3 -35 -7 -43 -23 -43 -17 0
-19 7 -19 61 0 55 2 61 19 56 10 -2 25 -1 32 4 18 11 26 11 50 -1z m123 4 c9
-3 16 -12 16 -20 0 -10 -8 -13 -27 -9 -27 6 -27 6 -9 -9 11 -9 23 -16 27 -16
14 0 21 -41 9 -55 -7 -9 -30 -15 -51 -15 -31 0 -39 4 -39 18 0 15 6 18 33 14
34 -5 32 4 -5 22 -57 28 -14 93 46 70z m136 -4 c17 -11 5 -26 -25 -32 -14 -2
-20 -11 -20 -28 0 -21 4 -25 28 -23 43 3 32 -31 -11 -35 -44 -4 -62 12 -62 59
0 54 48 86 90 59z m120 -9 c0 -10 -9 -21 -20 -24 -16 -4 -20 -14 -20 -46 0
-37 -2 -41 -25 -41 -24 0 -25 3 -25 61 0 60 1 61 24 57 14 -3 31 -1 38 3 20
13 28 11 28 -10z m122 -4 c4 -7 8 -22 8 -34 0 -20 -5 -23 -35 -23 -19 0 -35
-4 -35 -10 0 -5 16 -10 36 -10 24 0 34 -4 32 -12 -3 -8 -22 -13 -48 -13 -37 0
-47 4 -59 26 -12 22 -12 31 -2 57 7 17 20 33 29 35 24 7 65 -2 74 -16z m266 7
c12 -8 22 -26 22 -40 0 -21 -5 -24 -35 -24 -19 0 -35 -4 -35 -10 0 -5 14 -10
30 -10 20 0 30 -5 30 -15 0 -21 -68 -20 -92 2 -24 21 -23 68 2 93 24 24 48 25
78 4z m132 -3 c0 -11 -9 -23 -20 -26 -16 -5 -20 -15 -20 -46 0 -32 -3 -39 -20
-39 -18 0 -20 7 -20 61 0 55 2 61 19 56 10 -2 25 -1 32 4 21 13 29 11 29 -10z
m-3030 -30 c0 -42 16 -63 31 -40 5 8 9 29 9 47 0 25 4 32 20 32 18 0 20 -7 20
-58 l0 -59 -47 -1 c-27 0 -54 4 -60 10 -7 6 -13 32 -13 59 0 42 3 49 20 49 17
0 20 -7 20 -39z m732 -3 c2 -24 8 -43 13 -43 6 0 11 19 13 43 3 37 6 42 28 42
23 0 24 -3 24 -59 l0 -59 -55 -1 c-51 0 -57 2 -65 25 -6 14 -10 41 -10 60 0
29 3 34 24 34 22 0 25 -5 28 -42z m345 10 l10 -33 13 33 c8 21 19 32 32 32 16
0 19 -5 14 -23 -28 -114 -66 -127 -102 -34 l-22 57 22 0 c17 0 26 -8 33 -32z
m923 -28 c0 -53 -2 -60 -20 -60 -18 0 -20 7 -20 60 0 53 2 60 20 60 18 0 20
-7 20 -60z m711 23 l13 -38 9 38 c7 30 14 37 33 37 l23 0 -21 -60 c-18 -48
-26 -60 -44 -60 -16 0 -26 12 -43 51 -26 63 -26 69 -2 69 14 0 23 -12 32 -37z
m379 -63 c0 -13 -7 -20 -20 -20 -13 0 -20 7 -20 20 0 13 7 20 20 20 13 0 20
-7 20 -20z m68 3 c5 -17 -26 -29 -40 -15 -6 6 -7 15 -3 22 9 14 37 9 43 -7z
m62 -3 c0 -13 -7 -20 -20 -20 -13 0 -20 7 -20 20 0 13 7 20 20 20 13 0 20 -7
20 -20z"/>
<path d="M2776 1172 c-8 -24 -3 -37 12 -31 4 2 5 15 2 29 l-6 25 -8 -23z"/>
<path d="M5692 1188 c-17 -17 -15 -63 4 -79 22 -18 48 0 52 35 6 45 -29 71
-56 44z"/>
<path d="M6080 1180 c0 -15 5 -20 18 -18 9 2 17 10 17 18 0 8 -8 16 -17 18
-13 2 -18 -3 -18 -18z"/>
<path d="M6227 1194 c-14 -14 -7 -35 11 -32 9 2 17 10 17 17 0 16 -18 25 -28
15z"/>
<path d="M6380 1176 c-14 -38 3 -78 33 -74 19 3 22 9 22 48 0 39 -3 45 -22 48
-17 3 -26 -3 -33 -22z"/>
<path d="M6726 1168 c-7 -35 -3 -43 17 -35 10 4 13 15 10 31 -8 38 -20 40 -27
4z"/>
<path d="M6880 1150 c0 -54 1 -55 31 -40 34 19 20 90 -18 90 -9 0 -13 -16 -13
-50z"/>
<path d="M7056 1168 c-7 -35 -3 -43 17 -35 10 4 13 15 10 31 -8 38 -20 40 -27
4z"/>
<path d="M2924 1145 c-7 -18 2 -45 15 -45 11 0 19 30 14 48 -6 17 -22 15 -29
-3z"/>
<path d="M3212 1133 c3 -30 23 -41 31 -18 9 21 -2 45 -20 45 -10 0 -13 -9 -11
-27z"/>
<path d="M3515 1160 c-3 -5 1 -10 10 -10 9 0 13 5 10 10 -3 6 -8 10 -10 10 -2
0 -7 -4 -10 -10z"/>
<path d="M3710 1160 c0 -5 7 -10 16 -10 8 0 12 5 9 10 -3 6 -10 10 -16 10 -5
0 -9 -4 -9 -10z"/>
<path d="M4093 1123 c-18 -7 -16 -23 2 -23 8 0 15 7 15 15 0 8 -1 15 -2 14 -2
0 -9 -3 -15 -6z"/>
<path d="M4740 1110 c0 -5 4 -10 9 -10 6 0 13 5 16 10 3 6 -1 10 -9 10 -9 0
-16 -4 -16 -10z"/>
<path d="M4990 1160 c0 -5 7 -10 16 -10 8 0 12 5 9 10 -3 6 -10 10 -16 10 -5
0 -9 -4 -9 -10z"/>
<path d="M5120 1156 c0 -9 7 -16 16 -16 9 0 14 5 12 12 -6 18 -28 21 -28 4z"/>
<path d="M5115 1060 c-8 -12 20 -24 35 -15 6 3 8 11 5 16 -8 12 -32 12 -40 -1z"/>
<path d="M5343 1123 c-18 -7 -16 -23 2 -23 8 0 15 7 15 15 0 8 -1 15 -2 14 -2
0 -9 -3 -15 -6z"/>
<path d="M2660 871 c0 -12 6 -21 16 -21 9 0 14 7 12 17 -5 25 -28 28 -28 4z"/>
<path d="M2800 870 c0 -15 5 -20 18 -18 9 2 17 10 17 18 0 8 -8 16 -17 18 -13
2 -18 -3 -18 -18z"/>
<path d="M2962 878 c-17 -17 -15 -63 4 -79 22 -18 48 0 52 35 6 45 -29 71 -56
44z"/>
<path d="M3602 878 c-17 -17 -15 -63 4 -79 22 -18 48 0 52 35 6 45 -29 71 -56
44z"/>
<path d="M2452 823 c4 -36 33 -39 33 -3 0 16 -6 26 -18 28 -15 3 -18 -2 -15
-25z"/>
<path d="M3952 823 c4 -36 33 -39 33 -3 0 16 -6 26 -18 28 -15 3 -18 -2 -15
-25z"/>
<path d="M4750 820 c0 -20 5 -30 15 -30 10 0 15 10 15 30 0 20 -5 30 -15 30
-10 0 -15 -10 -15 -30z"/>
<path d="M4952 823 c3 -30 23 -41 31 -18 9 21 -2 45 -20 45 -10 0 -13 -9 -11
-27z"/>
<path d="M5255 850 c-3 -5 1 -10 10 -10 9 0 13 5 10 10 -3 6 -8 10 -10 10 -2
0 -7 -4 -10 -10z"/>
<path d="M5582 823 c4 -36 33 -39 33 -3 0 16 -6 26 -18 28 -15 3 -18 -2 -15
-25z"/>
<path d="M5855 850 c-3 -5 1 -10 9 -10 9 0 16 5 16 10 0 6 -4 10 -9 10 -6 0
-13 -4 -16 -10z"/>
<path d="M6175 850 c-3 -5 1 -10 10 -10 9 0 13 5 10 10 -3 6 -8 10 -10 10 -2
0 -7 -4 -10 -10z"/>
<path d="M6945 850 c-3 -5 1 -10 9 -10 9 0 16 5 16 10 0 6 -4 10 -9 10 -6 0
-13 -4 -16 -10z"/>
<path d="M7225 850 c-3 -5 1 -10 10 -10 9 0 13 5 10 10 -3 6 -8 10 -10 10 -2
0 -7 -4 -10 -10z"/>
</g>
</svg>
